<mxfile host="Electron" modified="2023-09-08T13:13:18.438Z" agent="Mozilla/5.0 (Windows NT 10.0; Win64; x64) AppleWebKit/537.36 (KHTML, like Gecko) draw.io/21.6.5 Chrome/114.0.5735.243 Electron/25.3.1 Safari/537.36" etag="_XtD6N-sDPr2bvEG8ayq" version="21.6.5" type="device">
  <diagram name="Página-1" id="WL1G8viFzLeEPoBTIzt4">
    <mxGraphModel dx="2177" dy="781" grid="1" gridSize="10" guides="1" tooltips="1" connect="1" arrows="1" fold="1" page="1" pageScale="1" pageWidth="827" pageHeight="1169" math="0" shadow="0">
      <root>
        <mxCell id="0" />
        <mxCell id="1" parent="0" />
        <mxCell id="0kogg17ca2DTE8kKbbJk-6" style="edgeStyle=orthogonalEdgeStyle;rounded=0;orthogonalLoop=1;jettySize=auto;html=1;" edge="1" parent="1" source="k-LVtURiHXhUArH-wuVZ-2" target="0kogg17ca2DTE8kKbbJk-5">
          <mxGeometry relative="1" as="geometry" />
        </mxCell>
        <mxCell id="k-LVtURiHXhUArH-wuVZ-2" value="Inicio" style="strokeWidth=2;html=1;shape=mxgraph.flowchart.terminator;whiteSpace=wrap;" parent="1" vertex="1">
          <mxGeometry x="-720" y="40" width="100" height="60" as="geometry" />
        </mxCell>
        <mxCell id="k-LVtURiHXhUArH-wuVZ-7" style="edgeStyle=orthogonalEdgeStyle;rounded=0;orthogonalLoop=1;jettySize=auto;html=1;" parent="1" source="k-LVtURiHXhUArH-wuVZ-3" target="k-LVtURiHXhUArH-wuVZ-5" edge="1">
          <mxGeometry relative="1" as="geometry" />
        </mxCell>
        <mxCell id="k-LVtURiHXhUArH-wuVZ-14" style="edgeStyle=orthogonalEdgeStyle;rounded=0;orthogonalLoop=1;jettySize=auto;html=1;" parent="1" source="k-LVtURiHXhUArH-wuVZ-3" target="k-LVtURiHXhUArH-wuVZ-15" edge="1">
          <mxGeometry relative="1" as="geometry">
            <mxPoint x="3394.8" y="1292.5" as="targetPoint" />
            <Array as="points">
              <mxPoint x="3529.8" y="852.5" />
              <mxPoint x="3529.8" y="1262.5" />
            </Array>
          </mxGeometry>
        </mxCell>
        <mxCell id="k-LVtURiHXhUArH-wuVZ-3" value="" style="verticalLabelPosition=bottom;verticalAlign=top;html=1;shape=hexagon;perimeter=hexagonPerimeter2;arcSize=6;size=0.27;" parent="1" vertex="1">
          <mxGeometry x="3329.8" y="822.5" width="130" height="60" as="geometry" />
        </mxCell>
        <mxCell id="k-LVtURiHXhUArH-wuVZ-4" value="i=0 ; i&amp;lt;quantidadeRegistro ; i++" style="text;html=1;strokeColor=none;fillColor=none;align=center;verticalAlign=middle;whiteSpace=wrap;rounded=0;" parent="1" vertex="1">
          <mxGeometry x="3364.8" y="837.5" width="60" height="30" as="geometry" />
        </mxCell>
        <mxCell id="k-LVtURiHXhUArH-wuVZ-8" style="edgeStyle=orthogonalEdgeStyle;rounded=0;orthogonalLoop=1;jettySize=auto;html=1;" parent="1" source="k-LVtURiHXhUArH-wuVZ-5" target="k-LVtURiHXhUArH-wuVZ-6" edge="1">
          <mxGeometry relative="1" as="geometry" />
        </mxCell>
        <mxCell id="k-LVtURiHXhUArH-wuVZ-5" value="cadastroFuncionario[i].matricula" style="html=1;strokeWidth=2;shape=manualInput;whiteSpace=wrap;rounded=1;size=26;arcSize=11;" parent="1" vertex="1">
          <mxGeometry x="3304.8" y="932.5" width="180" height="60" as="geometry" />
        </mxCell>
        <mxCell id="k-LVtURiHXhUArH-wuVZ-10" style="edgeStyle=orthogonalEdgeStyle;rounded=0;orthogonalLoop=1;jettySize=auto;html=1;" parent="1" source="k-LVtURiHXhUArH-wuVZ-6" target="k-LVtURiHXhUArH-wuVZ-9" edge="1">
          <mxGeometry relative="1" as="geometry" />
        </mxCell>
        <mxCell id="k-LVtURiHXhUArH-wuVZ-11" style="edgeStyle=orthogonalEdgeStyle;rounded=0;orthogonalLoop=1;jettySize=auto;html=1;entryX=0;entryY=0.5;entryDx=0;entryDy=0;" parent="1" source="k-LVtURiHXhUArH-wuVZ-9" target="k-LVtURiHXhUArH-wuVZ-3" edge="1">
          <mxGeometry relative="1" as="geometry">
            <Array as="points">
              <mxPoint x="3394.8" y="1222.5" />
              <mxPoint x="3249.8" y="1222.5" />
              <mxPoint x="3249.8" y="852.5" />
            </Array>
          </mxGeometry>
        </mxCell>
        <mxCell id="k-LVtURiHXhUArH-wuVZ-9" value="cadastroFuncionario[i].salario" style="html=1;strokeWidth=2;shape=manualInput;whiteSpace=wrap;rounded=1;size=26;arcSize=11;" parent="1" vertex="1">
          <mxGeometry x="3304.8" y="1122.5" width="180" height="60" as="geometry" />
        </mxCell>
        <mxCell id="k-LVtURiHXhUArH-wuVZ-6" value="cadastroFuncionario[i].nome" style="html=1;strokeWidth=2;shape=manualInput;whiteSpace=wrap;rounded=1;size=26;arcSize=11;" parent="1" vertex="1">
          <mxGeometry x="3304.8" y="1032.5" width="180" height="60" as="geometry" />
        </mxCell>
        <mxCell id="k-LVtURiHXhUArH-wuVZ-20" style="edgeStyle=orthogonalEdgeStyle;rounded=0;orthogonalLoop=1;jettySize=auto;html=1;" parent="1" source="k-LVtURiHXhUArH-wuVZ-15" target="k-LVtURiHXhUArH-wuVZ-18" edge="1">
          <mxGeometry relative="1" as="geometry" />
        </mxCell>
        <mxCell id="k-LVtURiHXhUArH-wuVZ-38" style="edgeStyle=orthogonalEdgeStyle;rounded=0;orthogonalLoop=1;jettySize=auto;html=1;" parent="1" source="k-LVtURiHXhUArH-wuVZ-15" target="k-LVtURiHXhUArH-wuVZ-39" edge="1">
          <mxGeometry relative="1" as="geometry">
            <mxPoint x="3394.8" y="1982.5" as="targetPoint" />
            <Array as="points">
              <mxPoint x="3689.8" y="1322.5" />
              <mxPoint x="3689.8" y="1982.5" />
              <mxPoint x="3394.8" y="1982.5" />
            </Array>
          </mxGeometry>
        </mxCell>
        <mxCell id="k-LVtURiHXhUArH-wuVZ-15" value="" style="verticalLabelPosition=bottom;verticalAlign=top;html=1;shape=hexagon;perimeter=hexagonPerimeter2;arcSize=6;size=0.27;" parent="1" vertex="1">
          <mxGeometry x="3329.8" y="1292.5" width="130" height="60" as="geometry" />
        </mxCell>
        <mxCell id="k-LVtURiHXhUArH-wuVZ-17" value="i=0 ; i&amp;lt;quantidadeRegistro ; i++" style="text;html=1;strokeColor=none;fillColor=none;align=center;verticalAlign=middle;whiteSpace=wrap;rounded=0;" parent="1" vertex="1">
          <mxGeometry x="3364.8" y="1307.5" width="60" height="30" as="geometry" />
        </mxCell>
        <mxCell id="k-LVtURiHXhUArH-wuVZ-21" style="edgeStyle=orthogonalEdgeStyle;rounded=0;orthogonalLoop=1;jettySize=auto;html=1;" parent="1" source="k-LVtURiHXhUArH-wuVZ-18" target="k-LVtURiHXhUArH-wuVZ-22" edge="1">
          <mxGeometry relative="1" as="geometry">
            <mxPoint x="3394.8" y="1492.5" as="targetPoint" />
          </mxGeometry>
        </mxCell>
        <mxCell id="k-LVtURiHXhUArH-wuVZ-37" style="edgeStyle=orthogonalEdgeStyle;rounded=0;orthogonalLoop=1;jettySize=auto;html=1;entryX=0;entryY=0.5;entryDx=0;entryDy=0;" parent="1" source="k-LVtURiHXhUArH-wuVZ-18" target="k-LVtURiHXhUArH-wuVZ-15" edge="1">
          <mxGeometry relative="1" as="geometry">
            <Array as="points">
              <mxPoint x="3649.8" y="1412.5" />
              <mxPoint x="3649.8" y="1942.5" />
              <mxPoint x="3049.8" y="1942.5" />
              <mxPoint x="3049.8" y="1322.5" />
            </Array>
          </mxGeometry>
        </mxCell>
        <mxCell id="k-LVtURiHXhUArH-wuVZ-18" value="" style="verticalLabelPosition=bottom;verticalAlign=top;html=1;shape=hexagon;perimeter=hexagonPerimeter2;arcSize=6;size=0.27;" parent="1" vertex="1">
          <mxGeometry x="3329.8" y="1382.5" width="130" height="60" as="geometry" />
        </mxCell>
        <mxCell id="k-LVtURiHXhUArH-wuVZ-19" value="int j=0 ; i&amp;lt;quantidadeRegistro ; i++" style="text;html=1;strokeColor=none;fillColor=none;align=center;verticalAlign=middle;whiteSpace=wrap;rounded=0;" parent="1" vertex="1">
          <mxGeometry x="3364.8" y="1397.5" width="65" height="35" as="geometry" />
        </mxCell>
        <mxCell id="k-LVtURiHXhUArH-wuVZ-24" style="edgeStyle=orthogonalEdgeStyle;rounded=0;orthogonalLoop=1;jettySize=auto;html=1;entryX=1;entryY=0.5;entryDx=0;entryDy=0;entryPerimeter=0;exitX=1;exitY=0.5;exitDx=0;exitDy=0;exitPerimeter=0;" parent="1" source="k-LVtURiHXhUArH-wuVZ-22" target="k-LVtURiHXhUArH-wuVZ-35" edge="1">
          <mxGeometry relative="1" as="geometry">
            <mxPoint x="3609.8" y="1582.5" as="targetPoint" />
            <Array as="points">
              <mxPoint x="3609.8" y="1527.5" />
              <mxPoint x="3609.8" y="1832.5" />
            </Array>
          </mxGeometry>
        </mxCell>
        <mxCell id="k-LVtURiHXhUArH-wuVZ-29" style="edgeStyle=orthogonalEdgeStyle;rounded=0;orthogonalLoop=1;jettySize=auto;html=1;exitX=0;exitY=0.5;exitDx=0;exitDy=0;exitPerimeter=0;" parent="1" source="k-LVtURiHXhUArH-wuVZ-22" target="k-LVtURiHXhUArH-wuVZ-28" edge="1">
          <mxGeometry relative="1" as="geometry">
            <Array as="points">
              <mxPoint x="3199.8" y="1527.5" />
            </Array>
          </mxGeometry>
        </mxCell>
        <mxCell id="k-LVtURiHXhUArH-wuVZ-22" value="" style="strokeWidth=2;html=1;shape=mxgraph.flowchart.decision;whiteSpace=wrap;" parent="1" vertex="1">
          <mxGeometry x="3276.05" y="1472.5" width="237.5" height="110" as="geometry" />
        </mxCell>
        <mxCell id="k-LVtURiHXhUArH-wuVZ-23" value="cadastroFuncionario[i].matricula &amp;gt; cadastroFuncionario[j].matricula" style="text;html=1;strokeColor=none;fillColor=none;align=center;verticalAlign=middle;whiteSpace=wrap;rounded=0;" parent="1" vertex="1">
          <mxGeometry x="3290.42" y="1510" width="213.75" height="35" as="geometry" />
        </mxCell>
        <mxCell id="k-LVtURiHXhUArH-wuVZ-26" value="Sim" style="text;html=1;strokeColor=none;fillColor=none;align=center;verticalAlign=middle;whiteSpace=wrap;rounded=0;" parent="1" vertex="1">
          <mxGeometry x="3199.8" y="1492.5" width="60" height="30" as="geometry" />
        </mxCell>
        <mxCell id="k-LVtURiHXhUArH-wuVZ-27" value="Não" style="text;html=1;strokeColor=none;fillColor=none;align=center;verticalAlign=middle;whiteSpace=wrap;rounded=0;" parent="1" vertex="1">
          <mxGeometry x="3549.8" y="1492.5" width="60" height="30" as="geometry" />
        </mxCell>
        <mxCell id="k-LVtURiHXhUArH-wuVZ-31" value="" style="edgeStyle=orthogonalEdgeStyle;rounded=0;orthogonalLoop=1;jettySize=auto;html=1;" parent="1" source="k-LVtURiHXhUArH-wuVZ-28" target="k-LVtURiHXhUArH-wuVZ-30" edge="1">
          <mxGeometry relative="1" as="geometry" />
        </mxCell>
        <mxCell id="k-LVtURiHXhUArH-wuVZ-28" value="auxiliarTrocador = cadastroFuncionario[i];" style="rounded=1;whiteSpace=wrap;html=1;absoluteArcSize=1;arcSize=14;strokeWidth=2;" parent="1" vertex="1">
          <mxGeometry x="3134.8" y="1591.5" width="130" height="50" as="geometry" />
        </mxCell>
        <mxCell id="k-LVtURiHXhUArH-wuVZ-33" style="edgeStyle=orthogonalEdgeStyle;rounded=0;orthogonalLoop=1;jettySize=auto;html=1;" parent="1" source="k-LVtURiHXhUArH-wuVZ-30" target="k-LVtURiHXhUArH-wuVZ-32" edge="1">
          <mxGeometry relative="1" as="geometry" />
        </mxCell>
        <mxCell id="k-LVtURiHXhUArH-wuVZ-30" value="cadastroFuncionario[i] =cadastroFuncionario[j];" style="rounded=1;whiteSpace=wrap;html=1;absoluteArcSize=1;arcSize=14;strokeWidth=2;" parent="1" vertex="1">
          <mxGeometry x="3132.3" y="1672.5" width="135" height="50" as="geometry" />
        </mxCell>
        <mxCell id="k-LVtURiHXhUArH-wuVZ-34" style="edgeStyle=orthogonalEdgeStyle;rounded=0;orthogonalLoop=1;jettySize=auto;html=1;" parent="1" source="k-LVtURiHXhUArH-wuVZ-32" target="k-LVtURiHXhUArH-wuVZ-35" edge="1">
          <mxGeometry relative="1" as="geometry">
            <mxPoint x="3189.8" y="1872.5" as="targetPoint" />
            <Array as="points">
              <mxPoint x="3199.8" y="1832.5" />
            </Array>
          </mxGeometry>
        </mxCell>
        <mxCell id="k-LVtURiHXhUArH-wuVZ-32" value="cadastroFuncionario[j] = auxiliarTrocador;" style="rounded=1;whiteSpace=wrap;html=1;absoluteArcSize=1;arcSize=14;strokeWidth=2;" parent="1" vertex="1">
          <mxGeometry x="3137.3" y="1752.5" width="125" height="50" as="geometry" />
        </mxCell>
        <mxCell id="k-LVtURiHXhUArH-wuVZ-36" style="edgeStyle=orthogonalEdgeStyle;rounded=0;orthogonalLoop=1;jettySize=auto;html=1;entryX=0;entryY=0.5;entryDx=0;entryDy=0;" parent="1" source="k-LVtURiHXhUArH-wuVZ-35" target="k-LVtURiHXhUArH-wuVZ-18" edge="1">
          <mxGeometry relative="1" as="geometry">
            <Array as="points">
              <mxPoint x="3394.8" y="1902.5" />
              <mxPoint x="3089.8" y="1902.5" />
              <mxPoint x="3089.8" y="1412.5" />
            </Array>
          </mxGeometry>
        </mxCell>
        <mxCell id="k-LVtURiHXhUArH-wuVZ-35" value="" style="strokeWidth=2;html=1;shape=mxgraph.flowchart.start_2;whiteSpace=wrap;" parent="1" vertex="1">
          <mxGeometry x="3384.8" y="1822.5" width="20" height="20" as="geometry" />
        </mxCell>
        <mxCell id="k-LVtURiHXhUArH-wuVZ-41" style="edgeStyle=orthogonalEdgeStyle;rounded=0;orthogonalLoop=1;jettySize=auto;html=1;" parent="1" source="k-LVtURiHXhUArH-wuVZ-39" target="k-LVtURiHXhUArH-wuVZ-40" edge="1">
          <mxGeometry relative="1" as="geometry" />
        </mxCell>
        <mxCell id="k-LVtURiHXhUArH-wuVZ-39" value="cadastrou = true;." style="rounded=1;whiteSpace=wrap;html=1;absoluteArcSize=1;arcSize=14;strokeWidth=2;" parent="1" vertex="1">
          <mxGeometry x="3344.8" y="2022.5" width="100" height="50" as="geometry" />
        </mxCell>
        <mxCell id="0kogg17ca2DTE8kKbbJk-58" style="edgeStyle=orthogonalEdgeStyle;rounded=0;orthogonalLoop=1;jettySize=auto;html=1;" edge="1" parent="1" source="k-LVtURiHXhUArH-wuVZ-40" target="0kogg17ca2DTE8kKbbJk-59">
          <mxGeometry relative="1" as="geometry">
            <mxPoint x="3394.7999999999993" y="3670" as="targetPoint" />
            <Array as="points">
              <mxPoint x="3395" y="3710" />
            </Array>
          </mxGeometry>
        </mxCell>
        <mxCell id="k-LVtURiHXhUArH-wuVZ-40" value="break;" style="rounded=1;whiteSpace=wrap;html=1;absoluteArcSize=1;arcSize=14;strokeWidth=2;" parent="1" vertex="1">
          <mxGeometry x="3344.8" y="2112.5" width="100" height="50" as="geometry" />
        </mxCell>
        <mxCell id="k-LVtURiHXhUArH-wuVZ-42" value="Escolha uma das opções.&lt;br&gt;[0] Cadastrar 20 funcionários&lt;br&gt;[1] Pesquise um funcionário&lt;br&gt;[2] Apresentar funcionários que recebem acima de R$1.000&lt;br&gt;[3] Apresentar funcionários que recebem menos de R$1.000&lt;br&gt;[4] Apresentar funcionários que recebem igualmente R$1.000&lt;br&gt;[5] Sair do programa" style="text;html=1;strokeColor=none;fillColor=none;align=center;verticalAlign=middle;whiteSpace=wrap;rounded=0;" parent="1" vertex="1">
          <mxGeometry x="-460" y="455" width="170" height="30" as="geometry" />
        </mxCell>
        <mxCell id="k-LVtURiHXhUArH-wuVZ-46" style="edgeStyle=orthogonalEdgeStyle;rounded=0;orthogonalLoop=1;jettySize=auto;html=1;" parent="1" source="k-LVtURiHXhUArH-wuVZ-44" target="k-LVtURiHXhUArH-wuVZ-45" edge="1">
          <mxGeometry relative="1" as="geometry" />
        </mxCell>
        <mxCell id="k-LVtURiHXhUArH-wuVZ-44" value="resposta = &quot;SIM&quot;;" style="rounded=1;whiteSpace=wrap;html=1;absoluteArcSize=1;arcSize=14;strokeWidth=2;" parent="1" vertex="1">
          <mxGeometry x="2209.92" y="1044" width="100" height="50" as="geometry" />
        </mxCell>
        <mxCell id="k-LVtURiHXhUArH-wuVZ-47" style="edgeStyle=orthogonalEdgeStyle;rounded=0;orthogonalLoop=1;jettySize=auto;html=1;" parent="1" source="k-LVtURiHXhUArH-wuVZ-45" target="k-LVtURiHXhUArH-wuVZ-49" edge="1">
          <mxGeometry relative="1" as="geometry">
            <mxPoint x="2259.92" y="1284" as="targetPoint" />
          </mxGeometry>
        </mxCell>
        <mxCell id="k-LVtURiHXhUArH-wuVZ-130" style="edgeStyle=orthogonalEdgeStyle;rounded=0;orthogonalLoop=1;jettySize=auto;html=1;entryX=0.722;entryY=-0.011;entryDx=0;entryDy=0;entryPerimeter=0;" parent="1" source="k-LVtURiHXhUArH-wuVZ-45" target="k-LVtURiHXhUArH-wuVZ-128" edge="1">
          <mxGeometry relative="1" as="geometry">
            <mxPoint x="2279.92" y="3454" as="targetPoint" />
            <Array as="points">
              <mxPoint x="2829.92" y="1194" />
              <mxPoint x="2829.92" y="3274" />
              <mxPoint x="2277.92" y="3274" />
              <mxPoint x="2277.92" y="3464" />
            </Array>
          </mxGeometry>
        </mxCell>
        <mxCell id="k-LVtURiHXhUArH-wuVZ-45" value="strcmp(resposta, &quot;SIM&quot;) == 0" style="strokeWidth=2;html=1;shape=mxgraph.flowchart.decision;whiteSpace=wrap;" parent="1" vertex="1">
          <mxGeometry x="2199.92" y="1144" width="120" height="100" as="geometry" />
        </mxCell>
        <mxCell id="k-LVtURiHXhUArH-wuVZ-53" style="edgeStyle=orthogonalEdgeStyle;rounded=0;orthogonalLoop=1;jettySize=auto;html=1;" parent="1" source="k-LVtURiHXhUArH-wuVZ-49" target="k-LVtURiHXhUArH-wuVZ-52" edge="1">
          <mxGeometry relative="1" as="geometry" />
        </mxCell>
        <mxCell id="k-LVtURiHXhUArH-wuVZ-49" value="matriculaPesquisa" style="html=1;strokeWidth=2;shape=manualInput;whiteSpace=wrap;rounded=1;size=26;arcSize=11;" parent="1" vertex="1">
          <mxGeometry x="2204.92" y="1294" width="110" height="60" as="geometry" />
        </mxCell>
        <mxCell id="k-LVtURiHXhUArH-wuVZ-50" value="Sim" style="text;html=1;strokeColor=none;fillColor=none;align=center;verticalAlign=middle;whiteSpace=wrap;rounded=0;" parent="1" vertex="1">
          <mxGeometry x="2199.92" y="1244" width="60" height="30" as="geometry" />
        </mxCell>
        <mxCell id="k-LVtURiHXhUArH-wuVZ-55" style="edgeStyle=orthogonalEdgeStyle;rounded=0;orthogonalLoop=1;jettySize=auto;html=1;" parent="1" source="k-LVtURiHXhUArH-wuVZ-52" target="k-LVtURiHXhUArH-wuVZ-54" edge="1">
          <mxGeometry relative="1" as="geometry" />
        </mxCell>
        <mxCell id="k-LVtURiHXhUArH-wuVZ-52" value="comeco = (quantidadeRegistro+1) -quantidadeRegistro;" style="rounded=1;whiteSpace=wrap;html=1;absoluteArcSize=1;arcSize=14;strokeWidth=2;" parent="1" vertex="1">
          <mxGeometry x="2194.92" y="1389" width="130" height="55" as="geometry" />
        </mxCell>
        <mxCell id="k-LVtURiHXhUArH-wuVZ-57" style="edgeStyle=orthogonalEdgeStyle;rounded=0;orthogonalLoop=1;jettySize=auto;html=1;" parent="1" source="k-LVtURiHXhUArH-wuVZ-54" target="k-LVtURiHXhUArH-wuVZ-56" edge="1">
          <mxGeometry relative="1" as="geometry" />
        </mxCell>
        <mxCell id="k-LVtURiHXhUArH-wuVZ-54" value="final = quantidadeRegistro;" style="rounded=1;whiteSpace=wrap;html=1;absoluteArcSize=1;arcSize=14;strokeWidth=2;" parent="1" vertex="1">
          <mxGeometry x="2194.92" y="1484" width="130" height="55" as="geometry" />
        </mxCell>
        <mxCell id="k-LVtURiHXhUArH-wuVZ-59" style="edgeStyle=orthogonalEdgeStyle;rounded=0;orthogonalLoop=1;jettySize=auto;html=1;" parent="1" source="k-LVtURiHXhUArH-wuVZ-56" target="k-LVtURiHXhUArH-wuVZ-58" edge="1">
          <mxGeometry relative="1" as="geometry" />
        </mxCell>
        <mxCell id="k-LVtURiHXhUArH-wuVZ-56" value="acha = false;" style="rounded=1;whiteSpace=wrap;html=1;absoluteArcSize=1;arcSize=14;strokeWidth=2;" parent="1" vertex="1">
          <mxGeometry x="2194.92" y="1571.5" width="130" height="55" as="geometry" />
        </mxCell>
        <mxCell id="k-LVtURiHXhUArH-wuVZ-60" style="edgeStyle=orthogonalEdgeStyle;rounded=0;orthogonalLoop=1;jettySize=auto;html=1;" parent="1" source="k-LVtURiHXhUArH-wuVZ-58" target="k-LVtURiHXhUArH-wuVZ-62" edge="1">
          <mxGeometry relative="1" as="geometry">
            <mxPoint x="2259.92" y="1834" as="targetPoint" />
          </mxGeometry>
        </mxCell>
        <mxCell id="k-LVtURiHXhUArH-wuVZ-92" style="edgeStyle=orthogonalEdgeStyle;rounded=0;orthogonalLoop=1;jettySize=auto;html=1;" parent="1" source="k-LVtURiHXhUArH-wuVZ-58" target="k-LVtURiHXhUArH-wuVZ-93" edge="1">
          <mxGeometry relative="1" as="geometry">
            <mxPoint x="2721.3485714285716" y="2464" as="targetPoint" />
            <Array as="points">
              <mxPoint x="2749.92" y="1714" />
              <mxPoint x="2749.92" y="2484" />
              <mxPoint x="2264.92" y="2484" />
            </Array>
          </mxGeometry>
        </mxCell>
        <mxCell id="k-LVtURiHXhUArH-wuVZ-58" value="comeco &amp;lt;= final &amp;amp;&amp;amp; acha == false" style="strokeWidth=2;html=1;shape=mxgraph.flowchart.decision;whiteSpace=wrap;" parent="1" vertex="1">
          <mxGeometry x="2194.92" y="1664" width="130" height="100" as="geometry" />
        </mxCell>
        <mxCell id="k-LVtURiHXhUArH-wuVZ-61" value="Sim" style="text;html=1;strokeColor=none;fillColor=none;align=center;verticalAlign=middle;whiteSpace=wrap;rounded=0;" parent="1" vertex="1">
          <mxGeometry x="2199.92" y="1774" width="60" height="30" as="geometry" />
        </mxCell>
        <mxCell id="k-LVtURiHXhUArH-wuVZ-64" style="edgeStyle=orthogonalEdgeStyle;rounded=0;orthogonalLoop=1;jettySize=auto;html=1;" parent="1" source="k-LVtURiHXhUArH-wuVZ-62" target="k-LVtURiHXhUArH-wuVZ-63" edge="1">
          <mxGeometry relative="1" as="geometry" />
        </mxCell>
        <mxCell id="k-LVtURiHXhUArH-wuVZ-62" value="meio = (comeco+final)/2" style="rounded=1;whiteSpace=wrap;html=1;absoluteArcSize=1;arcSize=14;strokeWidth=2;" parent="1" vertex="1">
          <mxGeometry x="2194.92" y="1829" width="130" height="55" as="geometry" />
        </mxCell>
        <mxCell id="k-LVtURiHXhUArH-wuVZ-66" style="edgeStyle=orthogonalEdgeStyle;rounded=0;orthogonalLoop=1;jettySize=auto;html=1;" parent="1" source="k-LVtURiHXhUArH-wuVZ-63" target="k-LVtURiHXhUArH-wuVZ-68" edge="1">
          <mxGeometry relative="1" as="geometry">
            <mxPoint x="2069.92" y="2044" as="targetPoint" />
          </mxGeometry>
        </mxCell>
        <mxCell id="k-LVtURiHXhUArH-wuVZ-70" style="edgeStyle=orthogonalEdgeStyle;rounded=0;orthogonalLoop=1;jettySize=auto;html=1;" parent="1" source="k-LVtURiHXhUArH-wuVZ-63" target="k-LVtURiHXhUArH-wuVZ-72" edge="1">
          <mxGeometry relative="1" as="geometry">
            <mxPoint x="2469.92" y="2044" as="targetPoint" />
            <Array as="points">
              <mxPoint x="2474.92" y="1984" />
            </Array>
          </mxGeometry>
        </mxCell>
        <mxCell id="k-LVtURiHXhUArH-wuVZ-63" value="" style="strokeWidth=2;html=1;shape=mxgraph.flowchart.decision;whiteSpace=wrap;" parent="1" vertex="1">
          <mxGeometry x="2152.42" y="1934" width="215" height="100" as="geometry" />
        </mxCell>
        <mxCell id="k-LVtURiHXhUArH-wuVZ-65" value="matriculaPesquisa == cadastroFuncionario[meio].matricula" style="text;html=1;strokeColor=none;fillColor=none;align=center;verticalAlign=middle;whiteSpace=wrap;rounded=0;" parent="1" vertex="1">
          <mxGeometry x="2227.42" y="1958" width="65" height="35" as="geometry" />
        </mxCell>
        <mxCell id="k-LVtURiHXhUArH-wuVZ-67" value="Sim" style="text;html=1;strokeColor=none;fillColor=none;align=center;verticalAlign=middle;whiteSpace=wrap;rounded=0;" parent="1" vertex="1">
          <mxGeometry x="2069.92" y="1958" width="60" height="30" as="geometry" />
        </mxCell>
        <mxCell id="k-LVtURiHXhUArH-wuVZ-86" style="edgeStyle=orthogonalEdgeStyle;rounded=0;orthogonalLoop=1;jettySize=auto;html=1;" parent="1" source="k-LVtURiHXhUArH-wuVZ-68" target="k-LVtURiHXhUArH-wuVZ-87" edge="1">
          <mxGeometry relative="1" as="geometry">
            <mxPoint x="2064.92" y="2324" as="targetPoint" />
            <Array as="points">
              <mxPoint x="2064.92" y="2364" />
            </Array>
          </mxGeometry>
        </mxCell>
        <mxCell id="k-LVtURiHXhUArH-wuVZ-68" value="acha = true;" style="rounded=1;whiteSpace=wrap;html=1;absoluteArcSize=1;arcSize=14;strokeWidth=2;" parent="1" vertex="1">
          <mxGeometry x="1999.92" y="2054" width="130" height="55" as="geometry" />
        </mxCell>
        <mxCell id="k-LVtURiHXhUArH-wuVZ-71" value="Não" style="text;html=1;strokeColor=none;fillColor=none;align=center;verticalAlign=middle;whiteSpace=wrap;rounded=0;" parent="1" vertex="1">
          <mxGeometry x="2399.92" y="1958" width="60" height="25" as="geometry" />
        </mxCell>
        <mxCell id="k-LVtURiHXhUArH-wuVZ-74" style="edgeStyle=orthogonalEdgeStyle;rounded=0;orthogonalLoop=1;jettySize=auto;html=1;" parent="1" source="k-LVtURiHXhUArH-wuVZ-72" target="k-LVtURiHXhUArH-wuVZ-78" edge="1">
          <mxGeometry relative="1" as="geometry">
            <mxPoint x="2309.92" y="2174" as="targetPoint" />
          </mxGeometry>
        </mxCell>
        <mxCell id="k-LVtURiHXhUArH-wuVZ-80" style="edgeStyle=orthogonalEdgeStyle;rounded=0;orthogonalLoop=1;jettySize=auto;html=1;" parent="1" source="k-LVtURiHXhUArH-wuVZ-72" target="k-LVtURiHXhUArH-wuVZ-79" edge="1">
          <mxGeometry relative="1" as="geometry">
            <Array as="points">
              <mxPoint x="2639.92" y="2099" />
            </Array>
          </mxGeometry>
        </mxCell>
        <mxCell id="k-LVtURiHXhUArH-wuVZ-72" value="" style="strokeWidth=2;html=1;shape=mxgraph.flowchart.decision;whiteSpace=wrap;" parent="1" vertex="1">
          <mxGeometry x="2367.42" y="2054" width="215" height="90" as="geometry" />
        </mxCell>
        <mxCell id="k-LVtURiHXhUArH-wuVZ-73" value="matriculaPesquisa &amp;lt; cadastroFuncionario[meio].matricla" style="text;html=1;strokeColor=none;fillColor=none;align=center;verticalAlign=middle;whiteSpace=wrap;rounded=0;" parent="1" vertex="1">
          <mxGeometry x="2442.42" y="2074" width="65" height="35" as="geometry" />
        </mxCell>
        <mxCell id="k-LVtURiHXhUArH-wuVZ-76" value="Sim" style="text;html=1;strokeColor=none;fillColor=none;align=center;verticalAlign=middle;whiteSpace=wrap;rounded=0;" parent="1" vertex="1">
          <mxGeometry x="2307.42" y="2066.5" width="60" height="30" as="geometry" />
        </mxCell>
        <mxCell id="k-LVtURiHXhUArH-wuVZ-77" value="Não" style="text;html=1;strokeColor=none;fillColor=none;align=center;verticalAlign=middle;whiteSpace=wrap;rounded=0;" parent="1" vertex="1">
          <mxGeometry x="2589.92" y="2069" width="60" height="25" as="geometry" />
        </mxCell>
        <mxCell id="k-LVtURiHXhUArH-wuVZ-85" style="edgeStyle=orthogonalEdgeStyle;rounded=0;orthogonalLoop=1;jettySize=auto;html=1;entryX=0;entryY=0.5;entryDx=0;entryDy=0;entryPerimeter=0;" parent="1" source="k-LVtURiHXhUArH-wuVZ-78" target="k-LVtURiHXhUArH-wuVZ-84" edge="1">
          <mxGeometry relative="1" as="geometry">
            <Array as="points">
              <mxPoint x="2292.92" y="2299" />
            </Array>
          </mxGeometry>
        </mxCell>
        <mxCell id="k-LVtURiHXhUArH-wuVZ-78" value="final = meio-1;" style="rounded=1;whiteSpace=wrap;html=1;absoluteArcSize=1;arcSize=14;strokeWidth=2;" parent="1" vertex="1">
          <mxGeometry x="2227.42" y="2174" width="130" height="55" as="geometry" />
        </mxCell>
        <mxCell id="k-LVtURiHXhUArH-wuVZ-83" style="edgeStyle=orthogonalEdgeStyle;rounded=0;orthogonalLoop=1;jettySize=auto;html=1;" parent="1" source="k-LVtURiHXhUArH-wuVZ-79" target="k-LVtURiHXhUArH-wuVZ-84" edge="1">
          <mxGeometry relative="1" as="geometry">
            <mxPoint x="2539.92" y="2324" as="targetPoint" />
            <Array as="points">
              <mxPoint x="2634.92" y="2299" />
            </Array>
          </mxGeometry>
        </mxCell>
        <mxCell id="k-LVtURiHXhUArH-wuVZ-79" value="comeco = meio-+1;" style="rounded=1;whiteSpace=wrap;html=1;absoluteArcSize=1;arcSize=14;strokeWidth=2;" parent="1" vertex="1">
          <mxGeometry x="2569.92" y="2174" width="130" height="55" as="geometry" />
        </mxCell>
        <mxCell id="k-LVtURiHXhUArH-wuVZ-90" style="edgeStyle=orthogonalEdgeStyle;rounded=0;orthogonalLoop=1;jettySize=auto;html=1;entryX=1;entryY=0.5;entryDx=0;entryDy=0;entryPerimeter=0;" parent="1" source="k-LVtURiHXhUArH-wuVZ-84" target="k-LVtURiHXhUArH-wuVZ-87" edge="1">
          <mxGeometry relative="1" as="geometry">
            <Array as="points">
              <mxPoint x="2469.92" y="2369" />
            </Array>
          </mxGeometry>
        </mxCell>
        <mxCell id="k-LVtURiHXhUArH-wuVZ-84" value="" style="strokeWidth=2;html=1;shape=mxgraph.flowchart.start_2;whiteSpace=wrap;" parent="1" vertex="1">
          <mxGeometry x="2459.92" y="2284" width="30" height="30" as="geometry" />
        </mxCell>
        <mxCell id="k-LVtURiHXhUArH-wuVZ-91" style="edgeStyle=orthogonalEdgeStyle;rounded=0;orthogonalLoop=1;jettySize=auto;html=1;entryX=0;entryY=0.5;entryDx=0;entryDy=0;entryPerimeter=0;" parent="1" source="k-LVtURiHXhUArH-wuVZ-87" target="k-LVtURiHXhUArH-wuVZ-58" edge="1">
          <mxGeometry relative="1" as="geometry">
            <Array as="points">
              <mxPoint x="2264.92" y="2444" />
              <mxPoint x="1949.92" y="2444" />
              <mxPoint x="1949.92" y="1714" />
            </Array>
          </mxGeometry>
        </mxCell>
        <mxCell id="k-LVtURiHXhUArH-wuVZ-87" value="" style="strokeWidth=2;html=1;shape=mxgraph.flowchart.start_2;whiteSpace=wrap;" parent="1" vertex="1">
          <mxGeometry x="2249.92" y="2354" width="30" height="30" as="geometry" />
        </mxCell>
        <mxCell id="k-LVtURiHXhUArH-wuVZ-94" style="edgeStyle=orthogonalEdgeStyle;rounded=0;orthogonalLoop=1;jettySize=auto;html=1;" parent="1" source="k-LVtURiHXhUArH-wuVZ-93" target="k-LVtURiHXhUArH-wuVZ-104" edge="1">
          <mxGeometry relative="1" as="geometry">
            <mxPoint x="2389.92" y="2654" as="targetPoint" />
          </mxGeometry>
        </mxCell>
        <mxCell id="k-LVtURiHXhUArH-wuVZ-95" style="edgeStyle=orthogonalEdgeStyle;rounded=0;orthogonalLoop=1;jettySize=auto;html=1;" parent="1" source="k-LVtURiHXhUArH-wuVZ-93" target="k-LVtURiHXhUArH-wuVZ-97" edge="1">
          <mxGeometry relative="1" as="geometry">
            <mxPoint x="2149.92" y="2644" as="targetPoint" />
            <Array as="points">
              <mxPoint x="2147.92" y="2584" />
            </Array>
          </mxGeometry>
        </mxCell>
        <mxCell id="k-LVtURiHXhUArH-wuVZ-93" value="acha == verdadeiro" style="strokeWidth=2;html=1;shape=mxgraph.flowchart.decision;whiteSpace=wrap;" parent="1" vertex="1">
          <mxGeometry x="2214.9185714285713" y="2534" width="100" height="100" as="geometry" />
        </mxCell>
        <mxCell id="k-LVtURiHXhUArH-wuVZ-96" value="Sim" style="text;html=1;strokeColor=none;fillColor=none;align=center;verticalAlign=middle;whiteSpace=wrap;rounded=0;" parent="1" vertex="1">
          <mxGeometry x="2149.92" y="2554" width="60" height="30" as="geometry" />
        </mxCell>
        <mxCell id="k-LVtURiHXhUArH-wuVZ-99" style="edgeStyle=orthogonalEdgeStyle;rounded=0;orthogonalLoop=1;jettySize=auto;html=1;" parent="1" source="k-LVtURiHXhUArH-wuVZ-97" target="k-LVtURiHXhUArH-wuVZ-98" edge="1">
          <mxGeometry relative="1" as="geometry" />
        </mxCell>
        <mxCell id="k-LVtURiHXhUArH-wuVZ-97" value="cadastroFuncionario[meio].matricula" style="strokeWidth=2;html=1;shape=mxgraph.flowchart.display;whiteSpace=wrap;" parent="1" vertex="1">
          <mxGeometry x="2044.92" y="2664" width="205" height="60" as="geometry" />
        </mxCell>
        <mxCell id="k-LVtURiHXhUArH-wuVZ-103" style="edgeStyle=orthogonalEdgeStyle;rounded=0;orthogonalLoop=1;jettySize=auto;html=1;" parent="1" source="k-LVtURiHXhUArH-wuVZ-98" target="k-LVtURiHXhUArH-wuVZ-102" edge="1">
          <mxGeometry relative="1" as="geometry" />
        </mxCell>
        <mxCell id="k-LVtURiHXhUArH-wuVZ-98" value="cadastroFuncionario[meio].nome" style="strokeWidth=2;html=1;shape=mxgraph.flowchart.display;whiteSpace=wrap;" parent="1" vertex="1">
          <mxGeometry x="2049.92" y="2754" width="195" height="60" as="geometry" />
        </mxCell>
        <mxCell id="k-LVtURiHXhUArH-wuVZ-107" style="edgeStyle=orthogonalEdgeStyle;rounded=0;orthogonalLoop=1;jettySize=auto;html=1;entryX=0;entryY=0.5;entryDx=0;entryDy=0;entryPerimeter=0;" parent="1" source="k-LVtURiHXhUArH-wuVZ-102" target="k-LVtURiHXhUArH-wuVZ-106" edge="1">
          <mxGeometry relative="1" as="geometry">
            <Array as="points">
              <mxPoint x="2139.92" y="2969" />
            </Array>
          </mxGeometry>
        </mxCell>
        <mxCell id="k-LVtURiHXhUArH-wuVZ-102" value="cadastroFuncionario[meio].salario" style="strokeWidth=2;html=1;shape=mxgraph.flowchart.display;whiteSpace=wrap;" parent="1" vertex="1">
          <mxGeometry x="2051.17" y="2854" width="192.5" height="60" as="geometry" />
        </mxCell>
        <mxCell id="k-LVtURiHXhUArH-wuVZ-105" style="edgeStyle=orthogonalEdgeStyle;rounded=0;orthogonalLoop=1;jettySize=auto;html=1;" parent="1" source="k-LVtURiHXhUArH-wuVZ-104" target="k-LVtURiHXhUArH-wuVZ-106" edge="1">
          <mxGeometry relative="1" as="geometry">
            <mxPoint x="2379.92" y="2854" as="targetPoint" />
            <Array as="points">
              <mxPoint x="2379.92" y="2969" />
            </Array>
          </mxGeometry>
        </mxCell>
        <mxCell id="k-LVtURiHXhUArH-wuVZ-104" value="&quot;Não foi localizado&quot;" style="strokeWidth=2;html=1;shape=mxgraph.flowchart.display;whiteSpace=wrap;" parent="1" vertex="1">
          <mxGeometry x="2329.92" y="2664" width="100" height="60" as="geometry" />
        </mxCell>
        <mxCell id="k-LVtURiHXhUArH-wuVZ-108" style="edgeStyle=orthogonalEdgeStyle;rounded=0;orthogonalLoop=1;jettySize=auto;html=1;" parent="1" source="k-LVtURiHXhUArH-wuVZ-106" target="k-LVtURiHXhUArH-wuVZ-110" edge="1">
          <mxGeometry relative="1" as="geometry">
            <mxPoint x="2259.92" y="3074" as="targetPoint" />
          </mxGeometry>
        </mxCell>
        <mxCell id="k-LVtURiHXhUArH-wuVZ-106" value="" style="strokeWidth=2;html=1;shape=mxgraph.flowchart.start_2;whiteSpace=wrap;" parent="1" vertex="1">
          <mxGeometry x="2255.92" y="2954" width="30" height="30" as="geometry" />
        </mxCell>
        <mxCell id="k-LVtURiHXhUArH-wuVZ-112" style="edgeStyle=orthogonalEdgeStyle;rounded=0;orthogonalLoop=1;jettySize=auto;html=1;entryX=0;entryY=0.5;entryDx=0;entryDy=0;entryPerimeter=0;" parent="1" source="k-LVtURiHXhUArH-wuVZ-109" target="k-LVtURiHXhUArH-wuVZ-45" edge="1">
          <mxGeometry relative="1" as="geometry">
            <Array as="points">
              <mxPoint x="2269.92" y="3244" />
              <mxPoint x="1909.92" y="3244" />
              <mxPoint x="1909.92" y="1194" />
            </Array>
          </mxGeometry>
        </mxCell>
        <mxCell id="k-LVtURiHXhUArH-wuVZ-109" value="resposta" style="html=1;strokeWidth=2;shape=manualInput;whiteSpace=wrap;rounded=1;size=26;arcSize=11;" parent="1" vertex="1">
          <mxGeometry x="2219.92" y="3134" width="100" height="60" as="geometry" />
        </mxCell>
        <mxCell id="k-LVtURiHXhUArH-wuVZ-111" style="edgeStyle=orthogonalEdgeStyle;rounded=0;orthogonalLoop=1;jettySize=auto;html=1;" parent="1" source="k-LVtURiHXhUArH-wuVZ-110" target="k-LVtURiHXhUArH-wuVZ-109" edge="1">
          <mxGeometry relative="1" as="geometry" />
        </mxCell>
        <mxCell id="k-LVtURiHXhUArH-wuVZ-110" value="&quot;Desajar continuar?&quot;" style="strokeWidth=2;html=1;shape=mxgraph.flowchart.display;whiteSpace=wrap;" parent="1" vertex="1">
          <mxGeometry x="2219.92" y="3044" width="100" height="60" as="geometry" />
        </mxCell>
        <mxCell id="k-LVtURiHXhUArH-wuVZ-115" style="edgeStyle=orthogonalEdgeStyle;rounded=0;orthogonalLoop=1;jettySize=auto;html=1;" parent="1" source="k-LVtURiHXhUArH-wuVZ-114" target="k-LVtURiHXhUArH-wuVZ-44" edge="1">
          <mxGeometry relative="1" as="geometry" />
        </mxCell>
        <mxCell id="k-LVtURiHXhUArH-wuVZ-122" style="edgeStyle=orthogonalEdgeStyle;rounded=0;orthogonalLoop=1;jettySize=auto;html=1;" parent="1" source="k-LVtURiHXhUArH-wuVZ-114" target="k-LVtURiHXhUArH-wuVZ-123" edge="1">
          <mxGeometry relative="1" as="geometry">
            <mxPoint x="2489.92" y="934" as="targetPoint" />
          </mxGeometry>
        </mxCell>
        <mxCell id="k-LVtURiHXhUArH-wuVZ-114" value="cadastrou == true" style="strokeWidth=2;html=1;shape=mxgraph.flowchart.decision;whiteSpace=wrap;" parent="1" vertex="1">
          <mxGeometry x="2319.92" y="924" width="110" height="100" as="geometry" />
        </mxCell>
        <mxCell id="k-LVtURiHXhUArH-wuVZ-117" value="Sim" style="text;html=1;strokeColor=none;fillColor=none;align=center;verticalAlign=middle;whiteSpace=wrap;rounded=0;" parent="1" vertex="1">
          <mxGeometry x="2255.92" y="944" width="60" height="30" as="geometry" />
        </mxCell>
        <mxCell id="k-LVtURiHXhUArH-wuVZ-118" value="Não" style="text;html=1;strokeColor=none;fillColor=none;align=center;verticalAlign=middle;whiteSpace=wrap;rounded=0;" parent="1" vertex="1">
          <mxGeometry x="2357.42" y="1694" width="60" height="25" as="geometry" />
        </mxCell>
        <mxCell id="k-LVtURiHXhUArH-wuVZ-119" value="Não" style="text;html=1;strokeColor=none;fillColor=none;align=center;verticalAlign=middle;whiteSpace=wrap;rounded=0;" parent="1" vertex="1">
          <mxGeometry x="2357.42" y="1164" width="60" height="25" as="geometry" />
        </mxCell>
        <mxCell id="k-LVtURiHXhUArH-wuVZ-121" value="Não" style="text;html=1;strokeColor=none;fillColor=none;align=center;verticalAlign=middle;whiteSpace=wrap;rounded=0;" parent="1" vertex="1">
          <mxGeometry x="2319.92" y="2556.5" width="60" height="25" as="geometry" />
        </mxCell>
        <mxCell id="k-LVtURiHXhUArH-wuVZ-127" style="edgeStyle=orthogonalEdgeStyle;rounded=0;orthogonalLoop=1;jettySize=auto;html=1;" parent="1" source="k-LVtURiHXhUArH-wuVZ-123" target="k-LVtURiHXhUArH-wuVZ-128" edge="1">
          <mxGeometry relative="1" as="geometry">
            <mxPoint x="2909.92" y="3404" as="targetPoint" />
            <Array as="points">
              <mxPoint x="2909.92" y="3479" />
            </Array>
          </mxGeometry>
        </mxCell>
        <mxCell id="k-LVtURiHXhUArH-wuVZ-123" value="&quot;Cadastre primeiro&quot;" style="strokeWidth=2;html=1;shape=mxgraph.flowchart.display;whiteSpace=wrap;" parent="1" vertex="1">
          <mxGeometry x="2859.92" y="1044" width="100" height="60" as="geometry" />
        </mxCell>
        <mxCell id="k-LVtURiHXhUArH-wuVZ-125" value="Não" style="text;html=1;strokeColor=none;fillColor=none;align=center;verticalAlign=middle;whiteSpace=wrap;rounded=0;" parent="1" vertex="1">
          <mxGeometry x="2459.92" y="944" width="60" height="25" as="geometry" />
        </mxCell>
        <mxCell id="k-LVtURiHXhUArH-wuVZ-132" style="edgeStyle=orthogonalEdgeStyle;rounded=0;orthogonalLoop=1;jettySize=auto;html=1;" parent="1" source="k-LVtURiHXhUArH-wuVZ-128" target="k-LVtURiHXhUArH-wuVZ-133" edge="1">
          <mxGeometry relative="1" as="geometry">
            <mxPoint x="2270.92" y="3534" as="targetPoint" />
          </mxGeometry>
        </mxCell>
        <mxCell id="k-LVtURiHXhUArH-wuVZ-128" value="" style="strokeWidth=2;html=1;shape=mxgraph.flowchart.start_2;whiteSpace=wrap;" parent="1" vertex="1">
          <mxGeometry x="2255.92" y="3464" width="30" height="30" as="geometry" />
        </mxCell>
        <mxCell id="0kogg17ca2DTE8kKbbJk-61" style="edgeStyle=orthogonalEdgeStyle;rounded=0;orthogonalLoop=1;jettySize=auto;html=1;entryX=0.5;entryY=0;entryDx=0;entryDy=0;entryPerimeter=0;" edge="1" parent="1" source="k-LVtURiHXhUArH-wuVZ-133" target="0kogg17ca2DTE8kKbbJk-59">
          <mxGeometry relative="1" as="geometry" />
        </mxCell>
        <mxCell id="k-LVtURiHXhUArH-wuVZ-133" value="break;" style="rounded=1;whiteSpace=wrap;html=1;absoluteArcSize=1;arcSize=14;strokeWidth=2;" parent="1" vertex="1">
          <mxGeometry x="2220.92" y="3534" width="100" height="50" as="geometry" />
        </mxCell>
        <mxCell id="k-LVtURiHXhUArH-wuVZ-136" style="edgeStyle=orthogonalEdgeStyle;rounded=0;orthogonalLoop=1;jettySize=auto;html=1;" parent="1" source="k-LVtURiHXhUArH-wuVZ-137" target="k-LVtURiHXhUArH-wuVZ-139" edge="1">
          <mxGeometry relative="1" as="geometry">
            <mxPoint x="1539.96" y="1137.5" as="targetPoint" />
          </mxGeometry>
        </mxCell>
        <mxCell id="k-LVtURiHXhUArH-wuVZ-165" style="edgeStyle=orthogonalEdgeStyle;rounded=0;orthogonalLoop=1;jettySize=auto;html=1;entryX=0.5;entryY=0;entryDx=0;entryDy=0;" parent="1" source="k-LVtURiHXhUArH-wuVZ-137" target="k-LVtURiHXhUArH-wuVZ-141" edge="1">
          <mxGeometry relative="1" as="geometry">
            <Array as="points">
              <mxPoint x="1314.96" y="1177.5" />
            </Array>
          </mxGeometry>
        </mxCell>
        <mxCell id="k-LVtURiHXhUArH-wuVZ-137" value="cadastrou == true" style="strokeWidth=2;html=1;shape=mxgraph.flowchart.decision;whiteSpace=wrap;" parent="1" vertex="1">
          <mxGeometry x="1369.96" y="1127.5" width="110" height="100" as="geometry" />
        </mxCell>
        <mxCell id="k-LVtURiHXhUArH-wuVZ-138" value="Sim" style="text;html=1;strokeColor=none;fillColor=none;align=center;verticalAlign=middle;whiteSpace=wrap;rounded=0;" parent="1" vertex="1">
          <mxGeometry x="1309.96" y="1145" width="60" height="30" as="geometry" />
        </mxCell>
        <mxCell id="k-LVtURiHXhUArH-wuVZ-167" style="edgeStyle=orthogonalEdgeStyle;rounded=0;orthogonalLoop=1;jettySize=auto;html=1;entryX=1;entryY=0.5;entryDx=0;entryDy=0;entryPerimeter=0;" parent="1" source="k-LVtURiHXhUArH-wuVZ-139" target="k-LVtURiHXhUArH-wuVZ-166" edge="1">
          <mxGeometry relative="1" as="geometry">
            <Array as="points">
              <mxPoint x="1629.96" y="1907.5" />
            </Array>
          </mxGeometry>
        </mxCell>
        <mxCell id="k-LVtURiHXhUArH-wuVZ-139" value="&quot;Cadastre primeiro&quot;" style="strokeWidth=2;html=1;shape=mxgraph.flowchart.display;whiteSpace=wrap;" parent="1" vertex="1">
          <mxGeometry x="1579.96" y="1247.5" width="100" height="60" as="geometry" />
        </mxCell>
        <mxCell id="k-LVtURiHXhUArH-wuVZ-140" value="Não" style="text;html=1;strokeColor=none;fillColor=none;align=center;verticalAlign=middle;whiteSpace=wrap;rounded=0;" parent="1" vertex="1">
          <mxGeometry x="1509.96" y="1147.5" width="60" height="25" as="geometry" />
        </mxCell>
        <mxCell id="k-LVtURiHXhUArH-wuVZ-144" style="edgeStyle=orthogonalEdgeStyle;rounded=0;orthogonalLoop=1;jettySize=auto;html=1;" parent="1" source="k-LVtURiHXhUArH-wuVZ-141" target="k-LVtURiHXhUArH-wuVZ-145" edge="1">
          <mxGeometry relative="1" as="geometry">
            <mxPoint x="1314.96" y="1347.5" as="targetPoint" />
          </mxGeometry>
        </mxCell>
        <mxCell id="k-LVtURiHXhUArH-wuVZ-163" style="edgeStyle=orthogonalEdgeStyle;rounded=0;orthogonalLoop=1;jettySize=auto;html=1;" parent="1" source="k-LVtURiHXhUArH-wuVZ-141" target="k-LVtURiHXhUArH-wuVZ-166" edge="1">
          <mxGeometry relative="1" as="geometry">
            <mxPoint x="1289.96" y="1867.5" as="targetPoint" />
            <Array as="points">
              <mxPoint x="1519.96" y="1287.5" />
              <mxPoint x="1519.96" y="1847.5" />
              <mxPoint x="1315.96" y="1847.5" />
              <mxPoint x="1315.96" y="1887.5" />
            </Array>
          </mxGeometry>
        </mxCell>
        <mxCell id="k-LVtURiHXhUArH-wuVZ-141" value="" style="verticalLabelPosition=bottom;verticalAlign=top;html=1;shape=hexagon;perimeter=hexagonPerimeter2;arcSize=6;size=0.27;" parent="1" vertex="1">
          <mxGeometry x="1249.96" y="1257.5" width="130" height="60" as="geometry" />
        </mxCell>
        <mxCell id="k-LVtURiHXhUArH-wuVZ-143" value="i=0 ; i&amp;lt;quantidadeRegistro ; i++" style="text;html=1;strokeColor=none;fillColor=none;align=center;verticalAlign=middle;whiteSpace=wrap;rounded=0;" parent="1" vertex="1">
          <mxGeometry x="1284.96" y="1270" width="60" height="35" as="geometry" />
        </mxCell>
        <mxCell id="k-LVtURiHXhUArH-wuVZ-149" style="edgeStyle=orthogonalEdgeStyle;rounded=0;orthogonalLoop=1;jettySize=auto;html=1;entryX=1;entryY=0.5;entryDx=0;entryDy=0;entryPerimeter=0;" parent="1" source="k-LVtURiHXhUArH-wuVZ-145" target="k-LVtURiHXhUArH-wuVZ-160" edge="1">
          <mxGeometry relative="1" as="geometry">
            <mxPoint x="1469.96" y="1477.5" as="targetPoint" />
            <Array as="points">
              <mxPoint x="1479.96" y="1412.5" />
              <mxPoint x="1479.96" y="1772.5" />
            </Array>
          </mxGeometry>
        </mxCell>
        <mxCell id="k-LVtURiHXhUArH-wuVZ-155" style="edgeStyle=orthogonalEdgeStyle;rounded=0;orthogonalLoop=1;jettySize=auto;html=1;entryX=0.5;entryY=0;entryDx=0;entryDy=0;entryPerimeter=0;" parent="1" source="k-LVtURiHXhUArH-wuVZ-145" target="k-LVtURiHXhUArH-wuVZ-151" edge="1">
          <mxGeometry relative="1" as="geometry">
            <Array as="points">
              <mxPoint x="1157.96" y="1412.5" />
              <mxPoint x="1157.96" y="1467.5" />
            </Array>
          </mxGeometry>
        </mxCell>
        <mxCell id="k-LVtURiHXhUArH-wuVZ-145" value="" style="strokeWidth=2;html=1;shape=mxgraph.flowchart.decision;whiteSpace=wrap;" parent="1" vertex="1">
          <mxGeometry x="1222.46" y="1362.5" width="185" height="100" as="geometry" />
        </mxCell>
        <mxCell id="k-LVtURiHXhUArH-wuVZ-146" value="cadastroFuncionario[i].salario &amp;gt; 1000" style="text;html=1;strokeColor=none;fillColor=none;align=center;verticalAlign=middle;whiteSpace=wrap;rounded=0;" parent="1" vertex="1">
          <mxGeometry x="1286.96" y="1399.5" width="60" height="35" as="geometry" />
        </mxCell>
        <mxCell id="k-LVtURiHXhUArH-wuVZ-150" style="edgeStyle=orthogonalEdgeStyle;rounded=0;orthogonalLoop=1;jettySize=auto;html=1;" parent="1" source="k-LVtURiHXhUArH-wuVZ-151" target="k-LVtURiHXhUArH-wuVZ-153" edge="1">
          <mxGeometry relative="1" as="geometry" />
        </mxCell>
        <mxCell id="k-LVtURiHXhUArH-wuVZ-151" value="cadastroFuncionario[i].matricula" style="strokeWidth=2;html=1;shape=mxgraph.flowchart.display;whiteSpace=wrap;" parent="1" vertex="1">
          <mxGeometry x="1064.96" y="1487.5" width="185" height="60" as="geometry" />
        </mxCell>
        <mxCell id="k-LVtURiHXhUArH-wuVZ-152" style="edgeStyle=orthogonalEdgeStyle;rounded=0;orthogonalLoop=1;jettySize=auto;html=1;" parent="1" source="k-LVtURiHXhUArH-wuVZ-153" target="k-LVtURiHXhUArH-wuVZ-154" edge="1">
          <mxGeometry relative="1" as="geometry" />
        </mxCell>
        <mxCell id="k-LVtURiHXhUArH-wuVZ-153" value="cadastroFuncionario[i].nome" style="strokeWidth=2;html=1;shape=mxgraph.flowchart.display;whiteSpace=wrap;" parent="1" vertex="1">
          <mxGeometry x="1077.46" y="1577.5" width="160" height="60" as="geometry" />
        </mxCell>
        <mxCell id="k-LVtURiHXhUArH-wuVZ-159" style="edgeStyle=orthogonalEdgeStyle;rounded=0;orthogonalLoop=1;jettySize=auto;html=1;" parent="1" source="k-LVtURiHXhUArH-wuVZ-154" target="k-LVtURiHXhUArH-wuVZ-160" edge="1">
          <mxGeometry relative="1" as="geometry">
            <mxPoint x="1179.9600000000005" y="1797.5" as="targetPoint" />
            <Array as="points">
              <mxPoint x="1157.96" y="1772.5" />
            </Array>
          </mxGeometry>
        </mxCell>
        <mxCell id="k-LVtURiHXhUArH-wuVZ-154" value="cadastroFuncionario[i].salario" style="strokeWidth=2;html=1;shape=mxgraph.flowchart.display;whiteSpace=wrap;" parent="1" vertex="1">
          <mxGeometry x="1078.71" y="1677.5" width="158.75" height="60" as="geometry" />
        </mxCell>
        <mxCell id="k-LVtURiHXhUArH-wuVZ-156" value="Sim" style="text;html=1;strokeColor=none;fillColor=none;align=center;verticalAlign=middle;whiteSpace=wrap;rounded=0;" parent="1" vertex="1">
          <mxGeometry x="1156.96" y="1382.5" width="60" height="35" as="geometry" />
        </mxCell>
        <mxCell id="k-LVtURiHXhUArH-wuVZ-158" value="Não" style="text;html=1;strokeColor=none;fillColor=none;align=center;verticalAlign=middle;whiteSpace=wrap;rounded=0;" parent="1" vertex="1">
          <mxGeometry x="1419.96" y="1382.5" width="60" height="35" as="geometry" />
        </mxCell>
        <mxCell id="k-LVtURiHXhUArH-wuVZ-162" style="edgeStyle=orthogonalEdgeStyle;rounded=0;orthogonalLoop=1;jettySize=auto;html=1;entryX=0;entryY=0.5;entryDx=0;entryDy=0;" parent="1" source="k-LVtURiHXhUArH-wuVZ-160" target="k-LVtURiHXhUArH-wuVZ-141" edge="1">
          <mxGeometry relative="1" as="geometry">
            <Array as="points">
              <mxPoint x="1319.96" y="1807.5" />
              <mxPoint x="1039.96" y="1807.5" />
              <mxPoint x="1039.96" y="1287.5" />
            </Array>
          </mxGeometry>
        </mxCell>
        <mxCell id="k-LVtURiHXhUArH-wuVZ-160" value="" style="strokeWidth=2;html=1;shape=mxgraph.flowchart.start_2;whiteSpace=wrap;" parent="1" vertex="1">
          <mxGeometry x="1304.96" y="1757.5" width="30" height="30" as="geometry" />
        </mxCell>
        <mxCell id="0kogg17ca2DTE8kKbbJk-64" style="edgeStyle=orthogonalEdgeStyle;rounded=0;orthogonalLoop=1;jettySize=auto;html=1;" edge="1" parent="1" source="k-LVtURiHXhUArH-wuVZ-164" target="0kogg17ca2DTE8kKbbJk-65">
          <mxGeometry relative="1" as="geometry">
            <mxPoint x="1314.960000000001" y="3670" as="targetPoint" />
          </mxGeometry>
        </mxCell>
        <mxCell id="k-LVtURiHXhUArH-wuVZ-164" value="break;" style="rounded=1;whiteSpace=wrap;html=1;absoluteArcSize=1;arcSize=14;strokeWidth=2;" parent="1" vertex="1">
          <mxGeometry x="1264.96" y="1967.5" width="100" height="50" as="geometry" />
        </mxCell>
        <mxCell id="k-LVtURiHXhUArH-wuVZ-168" style="edgeStyle=orthogonalEdgeStyle;rounded=0;orthogonalLoop=1;jettySize=auto;html=1;" parent="1" source="k-LVtURiHXhUArH-wuVZ-166" target="k-LVtURiHXhUArH-wuVZ-164" edge="1">
          <mxGeometry relative="1" as="geometry" />
        </mxCell>
        <mxCell id="k-LVtURiHXhUArH-wuVZ-166" value="" style="strokeWidth=2;html=1;shape=mxgraph.flowchart.start_2;whiteSpace=wrap;" parent="1" vertex="1">
          <mxGeometry x="1294.96" y="1887.5" width="40" height="40" as="geometry" />
        </mxCell>
        <mxCell id="k-LVtURiHXhUArH-wuVZ-169" style="edgeStyle=orthogonalEdgeStyle;rounded=0;orthogonalLoop=1;jettySize=auto;html=1;" parent="1" source="k-LVtURiHXhUArH-wuVZ-171" target="k-LVtURiHXhUArH-wuVZ-174" edge="1">
          <mxGeometry relative="1" as="geometry">
            <mxPoint x="870" y="1310" as="targetPoint" />
          </mxGeometry>
        </mxCell>
        <mxCell id="k-LVtURiHXhUArH-wuVZ-170" style="edgeStyle=orthogonalEdgeStyle;rounded=0;orthogonalLoop=1;jettySize=auto;html=1;entryX=0.5;entryY=0;entryDx=0;entryDy=0;" parent="1" source="k-LVtURiHXhUArH-wuVZ-171" target="k-LVtURiHXhUArH-wuVZ-178" edge="1">
          <mxGeometry relative="1" as="geometry">
            <Array as="points">
              <mxPoint x="645" y="1350" />
            </Array>
          </mxGeometry>
        </mxCell>
        <mxCell id="k-LVtURiHXhUArH-wuVZ-171" value="cadastrou == true" style="strokeWidth=2;html=1;shape=mxgraph.flowchart.decision;whiteSpace=wrap;" parent="1" vertex="1">
          <mxGeometry x="700" y="1300" width="110" height="100" as="geometry" />
        </mxCell>
        <mxCell id="k-LVtURiHXhUArH-wuVZ-172" value="Sim" style="text;html=1;strokeColor=none;fillColor=none;align=center;verticalAlign=middle;whiteSpace=wrap;rounded=0;" parent="1" vertex="1">
          <mxGeometry x="640" y="1317.5" width="60" height="30" as="geometry" />
        </mxCell>
        <mxCell id="k-LVtURiHXhUArH-wuVZ-173" style="edgeStyle=orthogonalEdgeStyle;rounded=0;orthogonalLoop=1;jettySize=auto;html=1;entryX=1;entryY=0.5;entryDx=0;entryDy=0;entryPerimeter=0;" parent="1" source="k-LVtURiHXhUArH-wuVZ-174" target="k-LVtURiHXhUArH-wuVZ-196" edge="1">
          <mxGeometry relative="1" as="geometry">
            <Array as="points">
              <mxPoint x="960" y="2080" />
            </Array>
          </mxGeometry>
        </mxCell>
        <mxCell id="k-LVtURiHXhUArH-wuVZ-174" value="&quot;Cadastre primeiro&quot;" style="strokeWidth=2;html=1;shape=mxgraph.flowchart.display;whiteSpace=wrap;" parent="1" vertex="1">
          <mxGeometry x="910" y="1420" width="100" height="60" as="geometry" />
        </mxCell>
        <mxCell id="k-LVtURiHXhUArH-wuVZ-175" value="Não" style="text;html=1;strokeColor=none;fillColor=none;align=center;verticalAlign=middle;whiteSpace=wrap;rounded=0;" parent="1" vertex="1">
          <mxGeometry x="840" y="1320" width="60" height="25" as="geometry" />
        </mxCell>
        <mxCell id="k-LVtURiHXhUArH-wuVZ-176" style="edgeStyle=orthogonalEdgeStyle;rounded=0;orthogonalLoop=1;jettySize=auto;html=1;" parent="1" source="k-LVtURiHXhUArH-wuVZ-178" target="k-LVtURiHXhUArH-wuVZ-182" edge="1">
          <mxGeometry relative="1" as="geometry">
            <mxPoint x="645" y="1520" as="targetPoint" />
          </mxGeometry>
        </mxCell>
        <mxCell id="k-LVtURiHXhUArH-wuVZ-177" style="edgeStyle=orthogonalEdgeStyle;rounded=0;orthogonalLoop=1;jettySize=auto;html=1;" parent="1" source="k-LVtURiHXhUArH-wuVZ-178" target="k-LVtURiHXhUArH-wuVZ-196" edge="1">
          <mxGeometry relative="1" as="geometry">
            <mxPoint x="620" y="2040" as="targetPoint" />
            <Array as="points">
              <mxPoint x="850" y="1460" />
              <mxPoint x="850" y="2020" />
              <mxPoint x="646" y="2020" />
              <mxPoint x="646" y="2060" />
            </Array>
          </mxGeometry>
        </mxCell>
        <mxCell id="k-LVtURiHXhUArH-wuVZ-178" value="" style="verticalLabelPosition=bottom;verticalAlign=top;html=1;shape=hexagon;perimeter=hexagonPerimeter2;arcSize=6;size=0.27;" parent="1" vertex="1">
          <mxGeometry x="580" y="1430" width="130" height="60" as="geometry" />
        </mxCell>
        <mxCell id="k-LVtURiHXhUArH-wuVZ-179" value="i=0 ; i&amp;lt;quantidadeRegistro ; i++" style="text;html=1;strokeColor=none;fillColor=none;align=center;verticalAlign=middle;whiteSpace=wrap;rounded=0;" parent="1" vertex="1">
          <mxGeometry x="615" y="1442.5" width="60" height="35" as="geometry" />
        </mxCell>
        <mxCell id="k-LVtURiHXhUArH-wuVZ-180" style="edgeStyle=orthogonalEdgeStyle;rounded=0;orthogonalLoop=1;jettySize=auto;html=1;entryX=1;entryY=0.5;entryDx=0;entryDy=0;entryPerimeter=0;" parent="1" source="k-LVtURiHXhUArH-wuVZ-182" target="k-LVtURiHXhUArH-wuVZ-193" edge="1">
          <mxGeometry relative="1" as="geometry">
            <mxPoint x="800" y="1650" as="targetPoint" />
            <Array as="points">
              <mxPoint x="810" y="1585" />
              <mxPoint x="810" y="1945" />
            </Array>
          </mxGeometry>
        </mxCell>
        <mxCell id="k-LVtURiHXhUArH-wuVZ-181" style="edgeStyle=orthogonalEdgeStyle;rounded=0;orthogonalLoop=1;jettySize=auto;html=1;entryX=0.5;entryY=0;entryDx=0;entryDy=0;entryPerimeter=0;" parent="1" source="k-LVtURiHXhUArH-wuVZ-182" target="k-LVtURiHXhUArH-wuVZ-185" edge="1">
          <mxGeometry relative="1" as="geometry">
            <Array as="points">
              <mxPoint x="488" y="1585" />
              <mxPoint x="488" y="1640" />
            </Array>
          </mxGeometry>
        </mxCell>
        <mxCell id="k-LVtURiHXhUArH-wuVZ-182" value="" style="strokeWidth=2;html=1;shape=mxgraph.flowchart.decision;whiteSpace=wrap;" parent="1" vertex="1">
          <mxGeometry x="552.5" y="1535" width="185" height="100" as="geometry" />
        </mxCell>
        <mxCell id="k-LVtURiHXhUArH-wuVZ-183" value="cadastroFuncionario[i].salario &amp;lt; 1000" style="text;html=1;strokeColor=none;fillColor=none;align=center;verticalAlign=middle;whiteSpace=wrap;rounded=0;" parent="1" vertex="1">
          <mxGeometry x="617" y="1572" width="60" height="35" as="geometry" />
        </mxCell>
        <mxCell id="k-LVtURiHXhUArH-wuVZ-184" style="edgeStyle=orthogonalEdgeStyle;rounded=0;orthogonalLoop=1;jettySize=auto;html=1;" parent="1" source="k-LVtURiHXhUArH-wuVZ-185" target="k-LVtURiHXhUArH-wuVZ-187" edge="1">
          <mxGeometry relative="1" as="geometry" />
        </mxCell>
        <mxCell id="k-LVtURiHXhUArH-wuVZ-185" value="cadastroFuncionario[i].matricula" style="strokeWidth=2;html=1;shape=mxgraph.flowchart.display;whiteSpace=wrap;" parent="1" vertex="1">
          <mxGeometry x="395" y="1660" width="185" height="60" as="geometry" />
        </mxCell>
        <mxCell id="k-LVtURiHXhUArH-wuVZ-186" style="edgeStyle=orthogonalEdgeStyle;rounded=0;orthogonalLoop=1;jettySize=auto;html=1;" parent="1" source="k-LVtURiHXhUArH-wuVZ-187" target="k-LVtURiHXhUArH-wuVZ-189" edge="1">
          <mxGeometry relative="1" as="geometry" />
        </mxCell>
        <mxCell id="k-LVtURiHXhUArH-wuVZ-187" value="cadastroFuncionario[i].nome" style="strokeWidth=2;html=1;shape=mxgraph.flowchart.display;whiteSpace=wrap;" parent="1" vertex="1">
          <mxGeometry x="407.5" y="1750" width="160" height="60" as="geometry" />
        </mxCell>
        <mxCell id="k-LVtURiHXhUArH-wuVZ-188" style="edgeStyle=orthogonalEdgeStyle;rounded=0;orthogonalLoop=1;jettySize=auto;html=1;" parent="1" source="k-LVtURiHXhUArH-wuVZ-189" target="k-LVtURiHXhUArH-wuVZ-193" edge="1">
          <mxGeometry relative="1" as="geometry">
            <mxPoint x="510" y="1970" as="targetPoint" />
            <Array as="points">
              <mxPoint x="488" y="1945" />
            </Array>
          </mxGeometry>
        </mxCell>
        <mxCell id="k-LVtURiHXhUArH-wuVZ-189" value="cadastroFuncionario[i].salario" style="strokeWidth=2;html=1;shape=mxgraph.flowchart.display;whiteSpace=wrap;" parent="1" vertex="1">
          <mxGeometry x="408.75" y="1850" width="158.75" height="60" as="geometry" />
        </mxCell>
        <mxCell id="k-LVtURiHXhUArH-wuVZ-190" value="Sim" style="text;html=1;strokeColor=none;fillColor=none;align=center;verticalAlign=middle;whiteSpace=wrap;rounded=0;" parent="1" vertex="1">
          <mxGeometry x="487" y="1555" width="60" height="35" as="geometry" />
        </mxCell>
        <mxCell id="k-LVtURiHXhUArH-wuVZ-191" value="Não" style="text;html=1;strokeColor=none;fillColor=none;align=center;verticalAlign=middle;whiteSpace=wrap;rounded=0;" parent="1" vertex="1">
          <mxGeometry x="750" y="1555" width="60" height="35" as="geometry" />
        </mxCell>
        <mxCell id="k-LVtURiHXhUArH-wuVZ-192" style="edgeStyle=orthogonalEdgeStyle;rounded=0;orthogonalLoop=1;jettySize=auto;html=1;entryX=0;entryY=0.5;entryDx=0;entryDy=0;" parent="1" source="k-LVtURiHXhUArH-wuVZ-193" target="k-LVtURiHXhUArH-wuVZ-178" edge="1">
          <mxGeometry relative="1" as="geometry">
            <Array as="points">
              <mxPoint x="650" y="1980" />
              <mxPoint x="370" y="1980" />
              <mxPoint x="370" y="1460" />
            </Array>
          </mxGeometry>
        </mxCell>
        <mxCell id="k-LVtURiHXhUArH-wuVZ-193" value="" style="strokeWidth=2;html=1;shape=mxgraph.flowchart.start_2;whiteSpace=wrap;" parent="1" vertex="1">
          <mxGeometry x="635" y="1930" width="30" height="30" as="geometry" />
        </mxCell>
        <mxCell id="0kogg17ca2DTE8kKbbJk-67" style="edgeStyle=orthogonalEdgeStyle;rounded=0;orthogonalLoop=1;jettySize=auto;html=1;entryX=0.5;entryY=0;entryDx=0;entryDy=0;entryPerimeter=0;" edge="1" parent="1" source="k-LVtURiHXhUArH-wuVZ-194" target="0kogg17ca2DTE8kKbbJk-66">
          <mxGeometry relative="1" as="geometry">
            <Array as="points">
              <mxPoint x="645" y="3700" />
            </Array>
          </mxGeometry>
        </mxCell>
        <mxCell id="k-LVtURiHXhUArH-wuVZ-194" value="break;" style="rounded=1;whiteSpace=wrap;html=1;absoluteArcSize=1;arcSize=14;strokeWidth=2;" parent="1" vertex="1">
          <mxGeometry x="595" y="2140" width="100" height="50" as="geometry" />
        </mxCell>
        <mxCell id="k-LVtURiHXhUArH-wuVZ-195" style="edgeStyle=orthogonalEdgeStyle;rounded=0;orthogonalLoop=1;jettySize=auto;html=1;" parent="1" source="k-LVtURiHXhUArH-wuVZ-196" target="k-LVtURiHXhUArH-wuVZ-194" edge="1">
          <mxGeometry relative="1" as="geometry" />
        </mxCell>
        <mxCell id="k-LVtURiHXhUArH-wuVZ-196" value="" style="strokeWidth=2;html=1;shape=mxgraph.flowchart.start_2;whiteSpace=wrap;" parent="1" vertex="1">
          <mxGeometry x="625" y="2060" width="40" height="40" as="geometry" />
        </mxCell>
        <mxCell id="k-LVtURiHXhUArH-wuVZ-197" style="edgeStyle=orthogonalEdgeStyle;rounded=0;orthogonalLoop=1;jettySize=auto;html=1;" parent="1" source="k-LVtURiHXhUArH-wuVZ-199" target="k-LVtURiHXhUArH-wuVZ-202" edge="1">
          <mxGeometry relative="1" as="geometry">
            <mxPoint x="190" y="1474" as="targetPoint" />
          </mxGeometry>
        </mxCell>
        <mxCell id="k-LVtURiHXhUArH-wuVZ-198" style="edgeStyle=orthogonalEdgeStyle;rounded=0;orthogonalLoop=1;jettySize=auto;html=1;entryX=0.5;entryY=0;entryDx=0;entryDy=0;" parent="1" source="k-LVtURiHXhUArH-wuVZ-199" target="k-LVtURiHXhUArH-wuVZ-206" edge="1">
          <mxGeometry relative="1" as="geometry">
            <Array as="points">
              <mxPoint x="-35" y="1514" />
            </Array>
          </mxGeometry>
        </mxCell>
        <mxCell id="k-LVtURiHXhUArH-wuVZ-199" value="cadastrou == true" style="strokeWidth=2;html=1;shape=mxgraph.flowchart.decision;whiteSpace=wrap;" parent="1" vertex="1">
          <mxGeometry x="20" y="1464" width="110" height="100" as="geometry" />
        </mxCell>
        <mxCell id="k-LVtURiHXhUArH-wuVZ-200" value="Sim" style="text;html=1;strokeColor=none;fillColor=none;align=center;verticalAlign=middle;whiteSpace=wrap;rounded=0;" parent="1" vertex="1">
          <mxGeometry x="-40" y="1481.5" width="60" height="30" as="geometry" />
        </mxCell>
        <mxCell id="k-LVtURiHXhUArH-wuVZ-201" style="edgeStyle=orthogonalEdgeStyle;rounded=0;orthogonalLoop=1;jettySize=auto;html=1;entryX=1;entryY=0.5;entryDx=0;entryDy=0;entryPerimeter=0;" parent="1" source="k-LVtURiHXhUArH-wuVZ-202" target="k-LVtURiHXhUArH-wuVZ-224" edge="1">
          <mxGeometry relative="1" as="geometry">
            <Array as="points">
              <mxPoint x="280" y="2244" />
            </Array>
          </mxGeometry>
        </mxCell>
        <mxCell id="k-LVtURiHXhUArH-wuVZ-202" value="&quot;Cadastre primeiro&quot;" style="strokeWidth=2;html=1;shape=mxgraph.flowchart.display;whiteSpace=wrap;" parent="1" vertex="1">
          <mxGeometry x="230" y="1584" width="100" height="60" as="geometry" />
        </mxCell>
        <mxCell id="k-LVtURiHXhUArH-wuVZ-203" value="Não" style="text;html=1;strokeColor=none;fillColor=none;align=center;verticalAlign=middle;whiteSpace=wrap;rounded=0;" parent="1" vertex="1">
          <mxGeometry x="160" y="1484" width="60" height="25" as="geometry" />
        </mxCell>
        <mxCell id="k-LVtURiHXhUArH-wuVZ-204" style="edgeStyle=orthogonalEdgeStyle;rounded=0;orthogonalLoop=1;jettySize=auto;html=1;" parent="1" source="k-LVtURiHXhUArH-wuVZ-206" target="k-LVtURiHXhUArH-wuVZ-210" edge="1">
          <mxGeometry relative="1" as="geometry">
            <mxPoint x="-35" y="1684" as="targetPoint" />
          </mxGeometry>
        </mxCell>
        <mxCell id="k-LVtURiHXhUArH-wuVZ-205" style="edgeStyle=orthogonalEdgeStyle;rounded=0;orthogonalLoop=1;jettySize=auto;html=1;" parent="1" source="k-LVtURiHXhUArH-wuVZ-206" target="k-LVtURiHXhUArH-wuVZ-224" edge="1">
          <mxGeometry relative="1" as="geometry">
            <mxPoint x="-60" y="2204" as="targetPoint" />
            <Array as="points">
              <mxPoint x="170" y="1624" />
              <mxPoint x="170" y="2184" />
              <mxPoint x="-34" y="2184" />
              <mxPoint x="-34" y="2224" />
            </Array>
          </mxGeometry>
        </mxCell>
        <mxCell id="k-LVtURiHXhUArH-wuVZ-206" value="" style="verticalLabelPosition=bottom;verticalAlign=top;html=1;shape=hexagon;perimeter=hexagonPerimeter2;arcSize=6;size=0.27;" parent="1" vertex="1">
          <mxGeometry x="-100" y="1594" width="130" height="60" as="geometry" />
        </mxCell>
        <mxCell id="k-LVtURiHXhUArH-wuVZ-207" value="i=0 ; i&amp;lt;quantidadeRegistro ; i++" style="text;html=1;strokeColor=none;fillColor=none;align=center;verticalAlign=middle;whiteSpace=wrap;rounded=0;" parent="1" vertex="1">
          <mxGeometry x="-65" y="1606.5" width="60" height="35" as="geometry" />
        </mxCell>
        <mxCell id="k-LVtURiHXhUArH-wuVZ-208" style="edgeStyle=orthogonalEdgeStyle;rounded=0;orthogonalLoop=1;jettySize=auto;html=1;entryX=1;entryY=0.5;entryDx=0;entryDy=0;entryPerimeter=0;" parent="1" source="k-LVtURiHXhUArH-wuVZ-210" target="k-LVtURiHXhUArH-wuVZ-221" edge="1">
          <mxGeometry relative="1" as="geometry">
            <mxPoint x="120" y="1814" as="targetPoint" />
            <Array as="points">
              <mxPoint x="130" y="1749" />
              <mxPoint x="130" y="2109" />
            </Array>
          </mxGeometry>
        </mxCell>
        <mxCell id="k-LVtURiHXhUArH-wuVZ-209" style="edgeStyle=orthogonalEdgeStyle;rounded=0;orthogonalLoop=1;jettySize=auto;html=1;entryX=0.5;entryY=0;entryDx=0;entryDy=0;entryPerimeter=0;" parent="1" source="k-LVtURiHXhUArH-wuVZ-210" target="k-LVtURiHXhUArH-wuVZ-213" edge="1">
          <mxGeometry relative="1" as="geometry">
            <Array as="points">
              <mxPoint x="-192" y="1749" />
              <mxPoint x="-192" y="1804" />
            </Array>
          </mxGeometry>
        </mxCell>
        <mxCell id="k-LVtURiHXhUArH-wuVZ-210" value="" style="strokeWidth=2;html=1;shape=mxgraph.flowchart.decision;whiteSpace=wrap;" parent="1" vertex="1">
          <mxGeometry x="-127.5" y="1699" width="185" height="100" as="geometry" />
        </mxCell>
        <mxCell id="k-LVtURiHXhUArH-wuVZ-211" value="cadastroFuncionario[i].salario == 1000" style="text;html=1;strokeColor=none;fillColor=none;align=center;verticalAlign=middle;whiteSpace=wrap;rounded=0;" parent="1" vertex="1">
          <mxGeometry x="-63" y="1736" width="60" height="35" as="geometry" />
        </mxCell>
        <mxCell id="k-LVtURiHXhUArH-wuVZ-212" style="edgeStyle=orthogonalEdgeStyle;rounded=0;orthogonalLoop=1;jettySize=auto;html=1;" parent="1" source="k-LVtURiHXhUArH-wuVZ-213" target="k-LVtURiHXhUArH-wuVZ-215" edge="1">
          <mxGeometry relative="1" as="geometry" />
        </mxCell>
        <mxCell id="k-LVtURiHXhUArH-wuVZ-213" value="cadastroFuncionario[i].matricula" style="strokeWidth=2;html=1;shape=mxgraph.flowchart.display;whiteSpace=wrap;" parent="1" vertex="1">
          <mxGeometry x="-285" y="1824" width="185" height="60" as="geometry" />
        </mxCell>
        <mxCell id="k-LVtURiHXhUArH-wuVZ-214" style="edgeStyle=orthogonalEdgeStyle;rounded=0;orthogonalLoop=1;jettySize=auto;html=1;" parent="1" source="k-LVtURiHXhUArH-wuVZ-215" target="k-LVtURiHXhUArH-wuVZ-217" edge="1">
          <mxGeometry relative="1" as="geometry" />
        </mxCell>
        <mxCell id="k-LVtURiHXhUArH-wuVZ-215" value="cadastroFuncionario[i].nome" style="strokeWidth=2;html=1;shape=mxgraph.flowchart.display;whiteSpace=wrap;" parent="1" vertex="1">
          <mxGeometry x="-272.5" y="1914" width="160" height="60" as="geometry" />
        </mxCell>
        <mxCell id="k-LVtURiHXhUArH-wuVZ-216" style="edgeStyle=orthogonalEdgeStyle;rounded=0;orthogonalLoop=1;jettySize=auto;html=1;" parent="1" source="k-LVtURiHXhUArH-wuVZ-217" target="k-LVtURiHXhUArH-wuVZ-221" edge="1">
          <mxGeometry relative="1" as="geometry">
            <mxPoint x="-170" y="2134" as="targetPoint" />
            <Array as="points">
              <mxPoint x="-192" y="2109" />
            </Array>
          </mxGeometry>
        </mxCell>
        <mxCell id="k-LVtURiHXhUArH-wuVZ-217" value="cadastroFuncionario[i].salario" style="strokeWidth=2;html=1;shape=mxgraph.flowchart.display;whiteSpace=wrap;" parent="1" vertex="1">
          <mxGeometry x="-271.25" y="2014" width="158.75" height="60" as="geometry" />
        </mxCell>
        <mxCell id="k-LVtURiHXhUArH-wuVZ-218" value="Sim" style="text;html=1;strokeColor=none;fillColor=none;align=center;verticalAlign=middle;whiteSpace=wrap;rounded=0;" parent="1" vertex="1">
          <mxGeometry x="-193" y="1719" width="60" height="35" as="geometry" />
        </mxCell>
        <mxCell id="k-LVtURiHXhUArH-wuVZ-219" value="Não" style="text;html=1;strokeColor=none;fillColor=none;align=center;verticalAlign=middle;whiteSpace=wrap;rounded=0;" parent="1" vertex="1">
          <mxGeometry x="70" y="1719" width="60" height="35" as="geometry" />
        </mxCell>
        <mxCell id="k-LVtURiHXhUArH-wuVZ-220" style="edgeStyle=orthogonalEdgeStyle;rounded=0;orthogonalLoop=1;jettySize=auto;html=1;entryX=0;entryY=0.5;entryDx=0;entryDy=0;" parent="1" source="k-LVtURiHXhUArH-wuVZ-221" target="k-LVtURiHXhUArH-wuVZ-206" edge="1">
          <mxGeometry relative="1" as="geometry">
            <Array as="points">
              <mxPoint x="-30" y="2144" />
              <mxPoint x="-310" y="2144" />
              <mxPoint x="-310" y="1624" />
            </Array>
          </mxGeometry>
        </mxCell>
        <mxCell id="k-LVtURiHXhUArH-wuVZ-221" value="" style="strokeWidth=2;html=1;shape=mxgraph.flowchart.start_2;whiteSpace=wrap;" parent="1" vertex="1">
          <mxGeometry x="-45" y="2094" width="30" height="30" as="geometry" />
        </mxCell>
        <mxCell id="0kogg17ca2DTE8kKbbJk-71" style="edgeStyle=orthogonalEdgeStyle;rounded=0;orthogonalLoop=1;jettySize=auto;html=1;" edge="1" parent="1" source="k-LVtURiHXhUArH-wuVZ-222" target="0kogg17ca2DTE8kKbbJk-70">
          <mxGeometry relative="1" as="geometry" />
        </mxCell>
        <mxCell id="k-LVtURiHXhUArH-wuVZ-222" value="break;" style="rounded=1;whiteSpace=wrap;html=1;absoluteArcSize=1;arcSize=14;strokeWidth=2;" parent="1" vertex="1">
          <mxGeometry x="-85" y="2304" width="100" height="50" as="geometry" />
        </mxCell>
        <mxCell id="k-LVtURiHXhUArH-wuVZ-223" style="edgeStyle=orthogonalEdgeStyle;rounded=0;orthogonalLoop=1;jettySize=auto;html=1;" parent="1" source="k-LVtURiHXhUArH-wuVZ-224" target="k-LVtURiHXhUArH-wuVZ-222" edge="1">
          <mxGeometry relative="1" as="geometry" />
        </mxCell>
        <mxCell id="k-LVtURiHXhUArH-wuVZ-224" value="" style="strokeWidth=2;html=1;shape=mxgraph.flowchart.start_2;whiteSpace=wrap;" parent="1" vertex="1">
          <mxGeometry x="-55" y="2224" width="40" height="40" as="geometry" />
        </mxCell>
        <mxCell id="k-LVtURiHXhUArH-wuVZ-227" style="edgeStyle=orthogonalEdgeStyle;rounded=0;orthogonalLoop=1;jettySize=auto;html=1;" parent="1" source="k-LVtURiHXhUArH-wuVZ-225" target="k-LVtURiHXhUArH-wuVZ-226" edge="1">
          <mxGeometry relative="1" as="geometry" />
        </mxCell>
        <mxCell id="k-LVtURiHXhUArH-wuVZ-225" value="parada = false;" style="rounded=1;whiteSpace=wrap;html=1;absoluteArcSize=1;arcSize=14;strokeWidth=2;" parent="1" vertex="1">
          <mxGeometry x="-520" y="1619.5" width="100" height="50" as="geometry" />
        </mxCell>
        <mxCell id="0kogg17ca2DTE8kKbbJk-74" style="edgeStyle=orthogonalEdgeStyle;rounded=0;orthogonalLoop=1;jettySize=auto;html=1;entryX=0.5;entryY=0;entryDx=0;entryDy=0;entryPerimeter=0;" edge="1" parent="1" source="k-LVtURiHXhUArH-wuVZ-226" target="0kogg17ca2DTE8kKbbJk-73">
          <mxGeometry relative="1" as="geometry" />
        </mxCell>
        <mxCell id="k-LVtURiHXhUArH-wuVZ-226" value="break;" style="rounded=1;whiteSpace=wrap;html=1;absoluteArcSize=1;arcSize=14;strokeWidth=2;" parent="1" vertex="1">
          <mxGeometry x="-520" y="1713.5" width="100" height="50" as="geometry" />
        </mxCell>
        <mxCell id="0kogg17ca2DTE8kKbbJk-15" style="edgeStyle=orthogonalEdgeStyle;rounded=0;orthogonalLoop=1;jettySize=auto;html=1;" edge="1" parent="1" source="0kogg17ca2DTE8kKbbJk-1" target="0kogg17ca2DTE8kKbbJk-16">
          <mxGeometry relative="1" as="geometry">
            <mxPoint x="-670" y="660" as="targetPoint" />
          </mxGeometry>
        </mxCell>
        <mxCell id="0kogg17ca2DTE8kKbbJk-1" value="opcaoEscolhida" style="html=1;strokeWidth=2;shape=manualInput;whiteSpace=wrap;rounded=1;size=26;arcSize=11;" vertex="1" parent="1">
          <mxGeometry x="-720" y="545" width="100" height="60" as="geometry" />
        </mxCell>
        <mxCell id="0kogg17ca2DTE8kKbbJk-8" style="edgeStyle=orthogonalEdgeStyle;rounded=0;orthogonalLoop=1;jettySize=auto;html=1;" edge="1" parent="1" source="0kogg17ca2DTE8kKbbJk-3" target="0kogg17ca2DTE8kKbbJk-11">
          <mxGeometry relative="1" as="geometry">
            <mxPoint x="-670" y="405" as="targetPoint" />
          </mxGeometry>
        </mxCell>
        <mxCell id="0kogg17ca2DTE8kKbbJk-13" style="edgeStyle=orthogonalEdgeStyle;rounded=0;orthogonalLoop=1;jettySize=auto;html=1;" edge="1" parent="1" source="0kogg17ca2DTE8kKbbJk-3" target="0kogg17ca2DTE8kKbbJk-78">
          <mxGeometry relative="1" as="geometry">
            <mxPoint x="-670" y="3910" as="targetPoint" />
            <Array as="points">
              <mxPoint x="3830" y="300" />
              <mxPoint x="3830" y="3830" />
              <mxPoint x="-670" y="3830" />
            </Array>
          </mxGeometry>
        </mxCell>
        <mxCell id="0kogg17ca2DTE8kKbbJk-3" value="parada!=false" style="strokeWidth=2;html=1;shape=mxgraph.flowchart.decision;whiteSpace=wrap;" vertex="1" parent="1">
          <mxGeometry x="-720" y="250" width="100" height="100" as="geometry" />
        </mxCell>
        <mxCell id="0kogg17ca2DTE8kKbbJk-7" style="edgeStyle=orthogonalEdgeStyle;rounded=0;orthogonalLoop=1;jettySize=auto;html=1;" edge="1" parent="1" source="0kogg17ca2DTE8kKbbJk-5" target="0kogg17ca2DTE8kKbbJk-3">
          <mxGeometry relative="1" as="geometry" />
        </mxCell>
        <mxCell id="0kogg17ca2DTE8kKbbJk-5" value="parada = true;" style="rounded=1;whiteSpace=wrap;html=1;absoluteArcSize=1;arcSize=14;strokeWidth=2;" vertex="1" parent="1">
          <mxGeometry x="-720" y="150" width="100" height="50" as="geometry" />
        </mxCell>
        <mxCell id="0kogg17ca2DTE8kKbbJk-10" value="Sim" style="text;html=1;strokeColor=none;fillColor=none;align=center;verticalAlign=middle;whiteSpace=wrap;rounded=0;" vertex="1" parent="1">
          <mxGeometry x="-730" y="355" width="60" height="30" as="geometry" />
        </mxCell>
        <mxCell id="0kogg17ca2DTE8kKbbJk-12" style="edgeStyle=orthogonalEdgeStyle;rounded=0;orthogonalLoop=1;jettySize=auto;html=1;" edge="1" parent="1" source="0kogg17ca2DTE8kKbbJk-11" target="0kogg17ca2DTE8kKbbJk-1">
          <mxGeometry relative="1" as="geometry" />
        </mxCell>
        <mxCell id="0kogg17ca2DTE8kKbbJk-11" value="[tela]" style="strokeWidth=2;html=1;shape=mxgraph.flowchart.display;whiteSpace=wrap;" vertex="1" parent="1">
          <mxGeometry x="-720" y="425" width="100" height="60" as="geometry" />
        </mxCell>
        <mxCell id="0kogg17ca2DTE8kKbbJk-14" value="Não" style="text;html=1;strokeColor=none;fillColor=none;align=center;verticalAlign=middle;whiteSpace=wrap;rounded=0;" vertex="1" parent="1">
          <mxGeometry x="-610" y="270" width="60" height="30" as="geometry" />
        </mxCell>
        <mxCell id="0kogg17ca2DTE8kKbbJk-17" style="edgeStyle=orthogonalEdgeStyle;rounded=0;orthogonalLoop=1;jettySize=auto;html=1;" edge="1" parent="1" source="0kogg17ca2DTE8kKbbJk-16" target="0kogg17ca2DTE8kKbbJk-22">
          <mxGeometry relative="1" as="geometry">
            <mxPoint x="-670" y="830" as="targetPoint" />
          </mxGeometry>
        </mxCell>
        <mxCell id="0kogg17ca2DTE8kKbbJk-18" style="edgeStyle=orthogonalEdgeStyle;rounded=0;orthogonalLoop=1;jettySize=auto;html=1;" edge="1" parent="1" source="0kogg17ca2DTE8kKbbJk-16" target="k-LVtURiHXhUArH-wuVZ-3">
          <mxGeometry relative="1" as="geometry">
            <mxPoint x="-70" y="800" as="targetPoint" />
          </mxGeometry>
        </mxCell>
        <mxCell id="0kogg17ca2DTE8kKbbJk-16" value="case opcaoEscolhida = 0;" style="strokeWidth=2;html=1;shape=mxgraph.flowchart.decision;whiteSpace=wrap;" vertex="1" parent="1">
          <mxGeometry x="-725" y="660" width="110" height="100" as="geometry" />
        </mxCell>
        <mxCell id="0kogg17ca2DTE8kKbbJk-19" value="Sim" style="text;html=1;strokeColor=none;fillColor=none;align=center;verticalAlign=middle;whiteSpace=wrap;rounded=0;" vertex="1" parent="1">
          <mxGeometry x="-615" y="680" width="60" height="30" as="geometry" />
        </mxCell>
        <mxCell id="0kogg17ca2DTE8kKbbJk-20" value="Não" style="text;html=1;strokeColor=none;fillColor=none;align=center;verticalAlign=middle;whiteSpace=wrap;rounded=0;" vertex="1" parent="1">
          <mxGeometry x="-730" y="760" width="60" height="30" as="geometry" />
        </mxCell>
        <mxCell id="0kogg17ca2DTE8kKbbJk-21" style="edgeStyle=orthogonalEdgeStyle;rounded=0;orthogonalLoop=1;jettySize=auto;html=1;" edge="1" source="0kogg17ca2DTE8kKbbJk-22" parent="1" target="0kogg17ca2DTE8kKbbJk-27">
          <mxGeometry relative="1" as="geometry">
            <mxPoint x="-670" y="1000" as="targetPoint" />
          </mxGeometry>
        </mxCell>
        <mxCell id="0kogg17ca2DTE8kKbbJk-25" style="edgeStyle=orthogonalEdgeStyle;rounded=0;orthogonalLoop=1;jettySize=auto;html=1;entryX=0.5;entryY=0;entryDx=0;entryDy=0;entryPerimeter=0;" edge="1" parent="1" source="0kogg17ca2DTE8kKbbJk-22" target="k-LVtURiHXhUArH-wuVZ-114">
          <mxGeometry relative="1" as="geometry">
            <mxPoint x="-440" y="880" as="targetPoint" />
          </mxGeometry>
        </mxCell>
        <mxCell id="0kogg17ca2DTE8kKbbJk-22" value="case opcaoEscolhida = 1;" style="strokeWidth=2;html=1;shape=mxgraph.flowchart.decision;whiteSpace=wrap;" vertex="1" parent="1">
          <mxGeometry x="-725" y="830" width="110" height="100" as="geometry" />
        </mxCell>
        <mxCell id="0kogg17ca2DTE8kKbbJk-23" value="Sim" style="text;html=1;strokeColor=none;fillColor=none;align=center;verticalAlign=middle;whiteSpace=wrap;rounded=0;" vertex="1" parent="1">
          <mxGeometry x="-615" y="850" width="60" height="30" as="geometry" />
        </mxCell>
        <mxCell id="0kogg17ca2DTE8kKbbJk-24" value="Não" style="text;html=1;strokeColor=none;fillColor=none;align=center;verticalAlign=middle;whiteSpace=wrap;rounded=0;" vertex="1" parent="1">
          <mxGeometry x="-730" y="930" width="60" height="30" as="geometry" />
        </mxCell>
        <mxCell id="0kogg17ca2DTE8kKbbJk-26" style="edgeStyle=orthogonalEdgeStyle;rounded=0;orthogonalLoop=1;jettySize=auto;html=1;" edge="1" source="0kogg17ca2DTE8kKbbJk-27" parent="1" target="0kogg17ca2DTE8kKbbJk-34">
          <mxGeometry relative="1" as="geometry">
            <mxPoint x="-670" y="1172.5" as="targetPoint" />
          </mxGeometry>
        </mxCell>
        <mxCell id="0kogg17ca2DTE8kKbbJk-32" style="edgeStyle=orthogonalEdgeStyle;rounded=0;orthogonalLoop=1;jettySize=auto;html=1;" edge="1" parent="1" source="0kogg17ca2DTE8kKbbJk-27" target="k-LVtURiHXhUArH-wuVZ-137">
          <mxGeometry relative="1" as="geometry">
            <mxPoint x="-210" y="1052.5" as="targetPoint" />
          </mxGeometry>
        </mxCell>
        <mxCell id="0kogg17ca2DTE8kKbbJk-27" value="case opcaoEscolhida = 2;" style="strokeWidth=2;html=1;shape=mxgraph.flowchart.decision;whiteSpace=wrap;" vertex="1" parent="1">
          <mxGeometry x="-725" y="1002.5" width="110" height="100" as="geometry" />
        </mxCell>
        <mxCell id="0kogg17ca2DTE8kKbbJk-28" value="Sim" style="text;html=1;strokeColor=none;fillColor=none;align=center;verticalAlign=middle;whiteSpace=wrap;rounded=0;" vertex="1" parent="1">
          <mxGeometry x="-620" y="1020" width="60" height="30" as="geometry" />
        </mxCell>
        <mxCell id="0kogg17ca2DTE8kKbbJk-29" value="Não" style="text;html=1;strokeColor=none;fillColor=none;align=center;verticalAlign=middle;whiteSpace=wrap;rounded=0;" vertex="1" parent="1">
          <mxGeometry x="-730" y="1102.5" width="60" height="30" as="geometry" />
        </mxCell>
        <mxCell id="0kogg17ca2DTE8kKbbJk-33" style="edgeStyle=orthogonalEdgeStyle;rounded=0;orthogonalLoop=1;jettySize=auto;html=1;" edge="1" source="0kogg17ca2DTE8kKbbJk-34" parent="1" target="0kogg17ca2DTE8kKbbJk-45">
          <mxGeometry relative="1" as="geometry">
            <mxPoint x="-670" y="1340" as="targetPoint" />
          </mxGeometry>
        </mxCell>
        <mxCell id="0kogg17ca2DTE8kKbbJk-37" style="edgeStyle=orthogonalEdgeStyle;rounded=0;orthogonalLoop=1;jettySize=auto;html=1;" edge="1" parent="1" source="0kogg17ca2DTE8kKbbJk-34" target="k-LVtURiHXhUArH-wuVZ-171">
          <mxGeometry relative="1" as="geometry">
            <mxPoint x="-450" y="1220" as="targetPoint" />
          </mxGeometry>
        </mxCell>
        <mxCell id="0kogg17ca2DTE8kKbbJk-34" value="case opcaoEscolhida = 3;" style="strokeWidth=2;html=1;shape=mxgraph.flowchart.decision;whiteSpace=wrap;" vertex="1" parent="1">
          <mxGeometry x="-725" y="1170" width="110" height="100" as="geometry" />
        </mxCell>
        <mxCell id="0kogg17ca2DTE8kKbbJk-35" value="Sim" style="text;html=1;strokeColor=none;fillColor=none;align=center;verticalAlign=middle;whiteSpace=wrap;rounded=0;" vertex="1" parent="1">
          <mxGeometry x="-615" y="1192.5" width="60" height="30" as="geometry" />
        </mxCell>
        <mxCell id="0kogg17ca2DTE8kKbbJk-36" value="Não" style="text;html=1;strokeColor=none;fillColor=none;align=center;verticalAlign=middle;whiteSpace=wrap;rounded=0;" vertex="1" parent="1">
          <mxGeometry x="-730" y="1270" width="60" height="30" as="geometry" />
        </mxCell>
        <mxCell id="0kogg17ca2DTE8kKbbJk-44" style="edgeStyle=orthogonalEdgeStyle;rounded=0;orthogonalLoop=1;jettySize=auto;html=1;" edge="1" source="0kogg17ca2DTE8kKbbJk-45" parent="1" target="0kogg17ca2DTE8kKbbJk-54">
          <mxGeometry relative="1" as="geometry">
            <mxPoint x="-670" y="1510" as="targetPoint" />
            <Array as="points">
              <mxPoint x="-670" y="1475" />
              <mxPoint x="-669" y="1475" />
            </Array>
          </mxGeometry>
        </mxCell>
        <mxCell id="0kogg17ca2DTE8kKbbJk-49" style="edgeStyle=orthogonalEdgeStyle;rounded=0;orthogonalLoop=1;jettySize=auto;html=1;" edge="1" parent="1" source="0kogg17ca2DTE8kKbbJk-45" target="k-LVtURiHXhUArH-wuVZ-199">
          <mxGeometry relative="1" as="geometry" />
        </mxCell>
        <mxCell id="0kogg17ca2DTE8kKbbJk-45" value="case opcaoEscolhida = 4;" style="strokeWidth=2;html=1;shape=mxgraph.flowchart.decision;whiteSpace=wrap;" vertex="1" parent="1">
          <mxGeometry x="-725" y="1340" width="110" height="100" as="geometry" />
        </mxCell>
        <mxCell id="0kogg17ca2DTE8kKbbJk-46" value="Sim" style="text;html=1;strokeColor=none;fillColor=none;align=center;verticalAlign=middle;whiteSpace=wrap;rounded=0;" vertex="1" parent="1">
          <mxGeometry x="-615" y="1359" width="60" height="30" as="geometry" />
        </mxCell>
        <mxCell id="0kogg17ca2DTE8kKbbJk-47" value="Não" style="text;html=1;strokeColor=none;fillColor=none;align=center;verticalAlign=middle;whiteSpace=wrap;rounded=0;" vertex="1" parent="1">
          <mxGeometry x="-730" y="1440" width="60" height="30" as="geometry" />
        </mxCell>
        <mxCell id="0kogg17ca2DTE8kKbbJk-57" style="edgeStyle=orthogonalEdgeStyle;rounded=0;orthogonalLoop=1;jettySize=auto;html=1;" edge="1" parent="1" source="0kogg17ca2DTE8kKbbJk-54" target="k-LVtURiHXhUArH-wuVZ-225">
          <mxGeometry relative="1" as="geometry" />
        </mxCell>
        <mxCell id="0kogg17ca2DTE8kKbbJk-84" style="edgeStyle=orthogonalEdgeStyle;rounded=0;orthogonalLoop=1;jettySize=auto;html=1;" edge="1" parent="1" source="0kogg17ca2DTE8kKbbJk-54" target="0kogg17ca2DTE8kKbbJk-81">
          <mxGeometry relative="1" as="geometry" />
        </mxCell>
        <mxCell id="0kogg17ca2DTE8kKbbJk-54" value="case opcaoEscolhida = 5;" style="strokeWidth=2;html=1;shape=mxgraph.flowchart.decision;whiteSpace=wrap;" vertex="1" parent="1">
          <mxGeometry x="-725" y="1510" width="110" height="100" as="geometry" />
        </mxCell>
        <mxCell id="0kogg17ca2DTE8kKbbJk-55" value="Sim" style="text;html=1;strokeColor=none;fillColor=none;align=center;verticalAlign=middle;whiteSpace=wrap;rounded=0;" vertex="1" parent="1">
          <mxGeometry x="-615" y="1522.5" width="60" height="30" as="geometry" />
        </mxCell>
        <mxCell id="0kogg17ca2DTE8kKbbJk-56" value="Não" style="text;html=1;strokeColor=none;fillColor=none;align=center;verticalAlign=middle;whiteSpace=wrap;rounded=0;" vertex="1" parent="1">
          <mxGeometry x="-760" y="1594" width="60" height="30" as="geometry" />
        </mxCell>
        <mxCell id="0kogg17ca2DTE8kKbbJk-63" style="edgeStyle=orthogonalEdgeStyle;rounded=0;orthogonalLoop=1;jettySize=auto;html=1;" edge="1" parent="1" source="0kogg17ca2DTE8kKbbJk-59" target="0kogg17ca2DTE8kKbbJk-65">
          <mxGeometry relative="1" as="geometry">
            <mxPoint x="1480" y="3700" as="targetPoint" />
          </mxGeometry>
        </mxCell>
        <mxCell id="0kogg17ca2DTE8kKbbJk-59" value="" style="strokeWidth=2;html=1;shape=mxgraph.flowchart.start_2;whiteSpace=wrap;" vertex="1" parent="1">
          <mxGeometry x="2260.92" y="3700" width="20" height="20" as="geometry" />
        </mxCell>
        <mxCell id="0kogg17ca2DTE8kKbbJk-68" style="edgeStyle=orthogonalEdgeStyle;rounded=0;orthogonalLoop=1;jettySize=auto;html=1;entryX=1;entryY=0.5;entryDx=0;entryDy=0;entryPerimeter=0;" edge="1" parent="1" source="0kogg17ca2DTE8kKbbJk-65" target="0kogg17ca2DTE8kKbbJk-66">
          <mxGeometry relative="1" as="geometry" />
        </mxCell>
        <mxCell id="0kogg17ca2DTE8kKbbJk-65" value="" style="strokeWidth=2;html=1;shape=mxgraph.flowchart.start_2;whiteSpace=wrap;" vertex="1" parent="1">
          <mxGeometry x="1304.96" y="3700" width="20" height="20" as="geometry" />
        </mxCell>
        <mxCell id="0kogg17ca2DTE8kKbbJk-72" style="edgeStyle=orthogonalEdgeStyle;rounded=0;orthogonalLoop=1;jettySize=auto;html=1;entryX=1;entryY=0.5;entryDx=0;entryDy=0;entryPerimeter=0;" edge="1" parent="1" source="0kogg17ca2DTE8kKbbJk-66" target="0kogg17ca2DTE8kKbbJk-70">
          <mxGeometry relative="1" as="geometry" />
        </mxCell>
        <mxCell id="0kogg17ca2DTE8kKbbJk-66" value="" style="strokeWidth=2;html=1;shape=mxgraph.flowchart.start_2;whiteSpace=wrap;" vertex="1" parent="1">
          <mxGeometry x="635" y="3700" width="20" height="20" as="geometry" />
        </mxCell>
        <mxCell id="0kogg17ca2DTE8kKbbJk-76" style="edgeStyle=orthogonalEdgeStyle;rounded=0;orthogonalLoop=1;jettySize=auto;html=1;entryX=1;entryY=0.5;entryDx=0;entryDy=0;entryPerimeter=0;" edge="1" parent="1" source="0kogg17ca2DTE8kKbbJk-70" target="0kogg17ca2DTE8kKbbJk-73">
          <mxGeometry relative="1" as="geometry" />
        </mxCell>
        <mxCell id="0kogg17ca2DTE8kKbbJk-70" value="" style="strokeWidth=2;html=1;shape=mxgraph.flowchart.start_2;whiteSpace=wrap;" vertex="1" parent="1">
          <mxGeometry x="-45" y="3700" width="20" height="20" as="geometry" />
        </mxCell>
        <mxCell id="0kogg17ca2DTE8kKbbJk-92" style="edgeStyle=orthogonalEdgeStyle;rounded=0;orthogonalLoop=1;jettySize=auto;html=1;entryX=1;entryY=0.5;entryDx=0;entryDy=0;entryPerimeter=0;" edge="1" parent="1" source="0kogg17ca2DTE8kKbbJk-73" target="0kogg17ca2DTE8kKbbJk-91">
          <mxGeometry relative="1" as="geometry" />
        </mxCell>
        <mxCell id="0kogg17ca2DTE8kKbbJk-73" value="" style="strokeWidth=2;html=1;shape=mxgraph.flowchart.start_2;whiteSpace=wrap;" vertex="1" parent="1">
          <mxGeometry x="-480" y="3700" width="20" height="20" as="geometry" />
        </mxCell>
        <mxCell id="0kogg17ca2DTE8kKbbJk-78" value="Fim" style="strokeWidth=2;html=1;shape=mxgraph.flowchart.terminator;whiteSpace=wrap;" vertex="1" parent="1">
          <mxGeometry x="-720" y="3910.000000000001" width="100" height="60" as="geometry" />
        </mxCell>
        <mxCell id="0kogg17ca2DTE8kKbbJk-85" style="edgeStyle=orthogonalEdgeStyle;rounded=0;orthogonalLoop=1;jettySize=auto;html=1;" edge="1" parent="1" source="0kogg17ca2DTE8kKbbJk-81" target="0kogg17ca2DTE8kKbbJk-88">
          <mxGeometry relative="1" as="geometry">
            <mxPoint x="-550" y="1780" as="targetPoint" />
          </mxGeometry>
        </mxCell>
        <mxCell id="0kogg17ca2DTE8kKbbJk-93" style="edgeStyle=orthogonalEdgeStyle;rounded=0;orthogonalLoop=1;jettySize=auto;html=1;entryX=0;entryY=0.5;entryDx=0;entryDy=0;entryPerimeter=0;" edge="1" parent="1" source="0kogg17ca2DTE8kKbbJk-81" target="0kogg17ca2DTE8kKbbJk-91">
          <mxGeometry relative="1" as="geometry">
            <mxPoint x="-580" y="3540" as="targetPoint" />
            <Array as="points">
              <mxPoint x="-670" y="3710" />
            </Array>
          </mxGeometry>
        </mxCell>
        <mxCell id="0kogg17ca2DTE8kKbbJk-81" value="default" style="strokeWidth=2;html=1;shape=mxgraph.flowchart.decision;whiteSpace=wrap;" vertex="1" parent="1">
          <mxGeometry x="-725" y="1657" width="110" height="100" as="geometry" />
        </mxCell>
        <mxCell id="0kogg17ca2DTE8kKbbJk-82" value="Sim" style="text;html=1;strokeColor=none;fillColor=none;align=center;verticalAlign=middle;whiteSpace=wrap;rounded=0;" vertex="1" parent="1">
          <mxGeometry x="-615" y="1669.5" width="60" height="30" as="geometry" />
        </mxCell>
        <mxCell id="0kogg17ca2DTE8kKbbJk-83" value="Não" style="text;html=1;strokeColor=none;fillColor=none;align=center;verticalAlign=middle;whiteSpace=wrap;rounded=0;" vertex="1" parent="1">
          <mxGeometry x="-760" y="1741" width="60" height="30" as="geometry" />
        </mxCell>
        <mxCell id="0kogg17ca2DTE8kKbbJk-90" style="edgeStyle=orthogonalEdgeStyle;rounded=0;orthogonalLoop=1;jettySize=auto;html=1;" edge="1" parent="1" source="0kogg17ca2DTE8kKbbJk-86" target="0kogg17ca2DTE8kKbbJk-91">
          <mxGeometry relative="1" as="geometry">
            <mxPoint x="-550" y="2030" as="targetPoint" />
          </mxGeometry>
        </mxCell>
        <mxCell id="0kogg17ca2DTE8kKbbJk-86" value="break;" style="rounded=1;whiteSpace=wrap;html=1;absoluteArcSize=1;arcSize=14;strokeWidth=2;" vertex="1" parent="1">
          <mxGeometry x="-600" y="1887.5" width="100" height="50" as="geometry" />
        </mxCell>
        <mxCell id="0kogg17ca2DTE8kKbbJk-89" style="edgeStyle=orthogonalEdgeStyle;rounded=0;orthogonalLoop=1;jettySize=auto;html=1;" edge="1" parent="1" source="0kogg17ca2DTE8kKbbJk-88" target="0kogg17ca2DTE8kKbbJk-86">
          <mxGeometry relative="1" as="geometry" />
        </mxCell>
        <mxCell id="0kogg17ca2DTE8kKbbJk-88" value="&quot;Escolha uma opção válida&quot;" style="strokeWidth=2;html=1;shape=mxgraph.flowchart.display;whiteSpace=wrap;" vertex="1" parent="1">
          <mxGeometry x="-600" y="1790" width="100" height="60" as="geometry" />
        </mxCell>
        <mxCell id="0kogg17ca2DTE8kKbbJk-94" style="edgeStyle=orthogonalEdgeStyle;rounded=0;orthogonalLoop=1;jettySize=auto;html=1;entryX=0;entryY=0.5;entryDx=0;entryDy=0;entryPerimeter=0;" edge="1" parent="1" source="0kogg17ca2DTE8kKbbJk-91" target="0kogg17ca2DTE8kKbbJk-3">
          <mxGeometry relative="1" as="geometry">
            <Array as="points">
              <mxPoint x="-550" y="3780" />
              <mxPoint x="-790" y="3780" />
              <mxPoint x="-790" y="300" />
            </Array>
          </mxGeometry>
        </mxCell>
        <mxCell id="0kogg17ca2DTE8kKbbJk-91" value="" style="strokeWidth=2;html=1;shape=mxgraph.flowchart.start_2;whiteSpace=wrap;" vertex="1" parent="1">
          <mxGeometry x="-560" y="3700" width="20" height="20" as="geometry" />
        </mxCell>
      </root>
    </mxGraphModel>
  </diagram>
</mxfile>
